<svg width="97" height="116" viewBox="0 0 97 116" fill="none" xmlns="http://www.w3.org/2000/svg">
<g id="Backend">
<g id="Union">
<path fill-rule="evenodd" clip-rule="evenodd" d="M48.3276 52.0508C44.7378 52.0508 41.8276 54.9609 41.8276 58.5508C41.8276 62.1406 44.7378 65.0508 48.3276 65.0508C51.9175 65.0508 54.8276 62.1406 54.8276 58.5508C54.8276 54.9609 51.9175 52.0508 48.3276 52.0508ZM44.8276 58.5508C44.8276 56.6178 46.3946 55.0508 48.3276 55.0508C50.2606 55.0508 51.8276 56.6178 51.8276 58.5508C51.8276 60.4838 50.2606 62.0508 48.3276 62.0508C46.3946 62.0508 44.8276 60.4838 44.8276 58.5508Z" fill="#322E2B"/>
<path fill-rule="evenodd" clip-rule="evenodd" d="M56.3276 31.0508C57.1561 31.0508 57.8276 31.7224 57.8276 32.5508V40.0508H61.3276C64.3652 40.0508 66.8276 42.5132 66.8276 45.5508V49.0508H74.3276C75.1561 49.0508 75.8276 49.7224 75.8276 50.5508C75.8276 51.3792 75.1561 52.0508 74.3276 52.0508H66.8276V57.0508H74.3276C75.1561 57.0508 75.8276 57.7224 75.8276 58.5508C75.8276 59.3792 75.1561 60.0508 74.3276 60.0508H66.8276V65.0508H74.3276C75.1561 65.0508 75.8276 65.7224 75.8276 66.5508C75.8276 67.3792 75.1561 68.0508 74.3276 68.0508H66.8276V71.5508C66.8276 74.5883 64.3652 77.0508 61.3276 77.0508H57.8276V84.5508C57.8276 85.3792 57.1561 86.0508 56.3276 86.0508C55.4992 86.0508 54.8276 85.3792 54.8276 84.5508V77.0508H49.8276V84.5508C49.8276 85.3792 49.1561 86.0508 48.3276 86.0508C47.4992 86.0508 46.8276 85.3792 46.8276 84.5508V77.0508H41.8276V84.5508C41.8276 85.3792 41.1561 86.0508 40.3276 86.0508C39.4992 86.0508 38.8276 85.3792 38.8276 84.5508V77.0508H35.3276C32.2901 77.0508 29.8276 74.5883 29.8276 71.5508V68.0508H22.3276C21.4992 68.0508 20.8276 67.3792 20.8276 66.5508C20.8276 65.7224 21.4992 65.0508 22.3276 65.0508H29.8276V60.0508H22.3276C21.4992 60.0508 20.8276 59.3792 20.8276 58.5508C20.8276 57.7224 21.4992 57.0508 22.3276 57.0508H29.8276V52.0508H22.3276C21.4992 52.0508 20.8276 51.3792 20.8276 50.5508C20.8276 49.7224 21.4992 49.0508 22.3276 49.0508H29.8276V45.5508C29.8276 42.5132 32.2901 40.0508 35.3276 40.0508H38.8276V32.5508C38.8276 31.7224 39.4992 31.0508 40.3276 31.0508C41.1561 31.0508 41.8276 31.7224 41.8276 32.5508V40.0508H46.8276V32.5508C46.8276 31.7224 47.4992 31.0508 48.3276 31.0508C49.1561 31.0508 49.8276 31.7224 49.8276 32.5508V40.0508H54.8276V32.5508C54.8276 31.7224 55.4992 31.0508 56.3276 31.0508ZM32.8276 45.5508C32.8276 44.1701 33.9469 43.0508 35.3276 43.0508H61.3276C62.7084 43.0508 63.8276 44.1701 63.8276 45.5508V71.5508C63.8276 72.9315 62.7084 74.0508 61.3276 74.0508H35.3276C33.9469 74.0508 32.8276 72.9315 32.8276 71.5508V45.5508Z" fill="#322E2B"/>
</g>
</g>
</svg>
