<svg width="97" height="117" viewBox="0 0 97 117" fill="none" xmlns="http://www.w3.org/2000/svg">
<g id="Business Analyst">
<g id="Union">
<path d="M48.2172 55.3504V55.3751C48.9617 55.8032 49.4921 56.4102 49.8644 57.1769C50.2366 57.943 50.4413 58.8886 50.4413 60.0132V60.1427H47.8915V60.0132C47.8915 59.1576 47.6868 58.5105 47.3145 58.0325C46.9051 57.5649 46.3653 57.3459 45.6674 57.3459C44.9229 57.3459 44.346 57.555 43.9365 58.0325C43.527 58.4705 43.3223 59.1175 43.3223 59.9737V63.1585H47.7705V65.0492H43.3223V66.7215C43.3223 67.5376 42.9966 68.1841 42.3359 68.6621H50.4041V71.24H39.1253V68.6621H39.2091C39.7395 68.6621 40.1118 68.4827 40.4002 68.1446C40.6887 67.806 40.8097 67.3285 40.8097 66.6814V65.0097H39.3673V63.1185H40.8097V59.5555C40.8097 58.5303 41.0144 57.6642 41.3867 56.9381C41.7589 56.251 42.3359 55.6939 43.0338 55.3059C43.7411 54.9273 44.6344 54.7483 45.6302 54.7483C46.6217 54.7483 47.4749 54.9653 48.2172 55.3504Z" fill="#322E2B"/>
<path fill-rule="evenodd" clip-rule="evenodd" d="M30.0067 38.5508C28.4384 38.5508 27.167 39.9106 27.167 41.5878V47.1557H21.6139C19.5228 47.1557 17.8276 48.9688 17.8276 51.2051V75.5014C17.8276 77.7377 19.5228 79.5508 21.6139 79.5508H67.049C69.1401 79.5508 70.8353 77.7377 70.8353 75.5014V72.9705H76.0414C78.1325 72.9705 79.8276 71.1574 79.8276 68.9212V42.6002C79.8276 40.3639 78.1325 38.5508 76.0414 38.5508H30.0067ZM76.9879 69.9335H70.8353V51.2051C70.8353 48.9688 69.1401 47.1557 67.049 47.1557H30.0067V41.5878H76.9879V69.9335ZM20.6673 74.9952V69.5623C21.2349 69.671 21.7912 69.845 22.3265 70.0823C23.3027 70.5148 24.1896 71.1485 24.9367 71.9478C25.6839 72.7466 26.2765 73.6952 26.6808 74.7392C26.9026 75.3116 27.0653 75.9067 27.167 76.5137H22.0872C21.303 76.5137 20.6673 75.8341 20.6673 74.9952ZM29.3044 73.5771C29.6693 74.5192 29.9161 75.5068 30.04 76.5137H58.6229C58.7468 75.5068 58.9936 74.5192 59.3585 73.5771C59.9056 72.1648 60.7074 70.8811 61.7182 69.8C62.729 68.719 63.929 67.8614 65.2497 67.2766C66.1308 66.8861 67.0541 66.6221 67.9956 66.4896V60.2169C67.0541 60.0844 66.1308 59.8204 65.2497 59.4299C63.929 58.8451 62.729 57.9875 61.7182 56.9065C60.7074 55.8254 59.9056 54.5417 59.3585 53.1294C58.9936 52.1873 58.7468 51.1997 58.6229 50.1928H30.04C29.9161 51.1997 29.6693 52.1873 29.3044 53.1294C28.7573 54.5417 27.9555 55.8254 26.9447 56.9065C25.9339 57.9875 24.7339 58.8451 23.4132 59.4299C22.5321 59.8204 21.6088 60.0844 20.6673 60.2169V66.4896C21.6088 66.6221 22.5321 66.8861 23.4132 67.2766C24.7339 67.8614 25.9339 68.719 26.9447 69.8C27.9555 70.8811 28.7573 72.1648 29.3044 73.5771ZM67.9956 57.1442V51.7113C67.9956 50.8724 67.3599 50.1928 66.5757 50.1928H61.4959C61.5977 50.7998 61.7603 51.3949 61.9821 51.9673C62.3864 53.0113 62.9791 53.9599 63.7262 54.7587C64.4733 55.558 65.3603 56.1917 66.3364 56.6242C66.5691 56.7275 66.8058 56.8185 67.0456 56.8976C67.1788 56.9416 67.313 56.9816 67.4481 57.0182C67.6292 57.0671 67.8118 57.1091 67.9956 57.1442ZM66.5757 76.5137H61.4959C61.5977 75.9067 61.7603 75.3116 61.9821 74.7392C62.3864 73.6952 62.9791 72.7466 63.7262 71.9478C64.4733 71.1485 65.3603 70.5148 66.3364 70.0823C66.8717 69.845 67.428 69.671 67.9956 69.5623V74.9952C67.9956 75.8341 67.3599 76.5137 66.5757 76.5137ZM27.167 50.1928H22.0872C21.303 50.1928 20.6673 50.8724 20.6673 51.7113V57.1442C21.2349 57.0355 21.7912 56.8615 22.3265 56.6242C23.3027 56.1917 24.1896 55.558 24.9367 54.7587C25.6839 53.9599 26.2765 53.0113 26.6808 51.9673C26.8141 51.6233 26.9261 51.2708 27.0163 50.913C27.0761 50.6752 27.1264 50.435 27.167 50.1928Z" fill="#322E2B"/>
</g>
</g>
</svg>
