<svg width="97" height="116" viewBox="0 0 97 116" fill="none" xmlns="http://www.w3.org/2000/svg">
<g id="Co-Founder">
<path id="Union" fill-rule="evenodd" clip-rule="evenodd" d="M47.3276 35.0508C44.2901 35.0508 41.8276 37.5132 41.8276 40.5508V43.5508C41.8276 46.5883 44.2901 49.0508 47.3276 49.0508V56.5508H32.8276C29.7901 56.5508 27.3276 59.0132 27.3276 62.0508V67.0508C24.2901 67.0508 21.8276 69.5132 21.8276 72.5508V75.5508C21.8276 78.5883 24.2901 81.0508 27.3276 81.0508H30.3276C33.3652 81.0508 35.8276 78.5883 35.8276 75.5508V72.5508C35.8276 69.5132 33.3652 67.0508 30.3276 67.0508V62.0508C30.3276 60.6701 31.4469 59.5508 32.8276 59.5508H47.3276V67.0508C44.2901 67.0508 41.8276 69.5132 41.8276 72.5508V75.5508C41.8276 78.5883 44.2901 81.0508 47.3276 81.0508H50.3276C53.3652 81.0508 55.8276 78.5883 55.8276 75.5508V72.5508C55.8276 69.5132 53.3652 67.0508 50.3276 67.0508V59.5508H64.8276C66.2083 59.5508 67.3276 60.6701 67.3276 62.0508V67.0508C64.2901 67.0508 61.8276 69.5132 61.8276 72.5508V75.5508C61.8276 78.5883 64.2901 81.0508 67.3276 81.0508H70.3276C73.3652 81.0508 75.8276 78.5883 75.8276 75.5508V72.5508C75.8276 69.5132 73.3652 67.0508 70.3276 67.0508V62.0508C70.3276 59.0132 67.8652 56.5508 64.8276 56.5508H50.3276V49.0508C53.3652 49.0508 55.8276 46.5883 55.8276 43.5508V40.5508C55.8276 37.5132 53.3652 35.0508 50.3276 35.0508H47.3276ZM44.8276 40.5508C44.8276 39.1701 45.9469 38.0508 47.3276 38.0508H50.3276C51.7083 38.0508 52.8276 39.1701 52.8276 40.5508V43.5508C52.8276 44.9315 51.7083 46.0508 50.3276 46.0508H47.3276C45.9469 46.0508 44.8276 44.9315 44.8276 43.5508V40.5508ZM24.8276 72.5508C24.8276 71.1701 25.9469 70.0508 27.3276 70.0508H30.3276C31.7083 70.0508 32.8276 71.1701 32.8276 72.5508V75.5508C32.8276 76.9315 31.7083 78.0508 30.3276 78.0508H27.3276C25.9469 78.0508 24.8276 76.9315 24.8276 75.5508V72.5508ZM47.3276 70.0508C45.9469 70.0508 44.8276 71.1701 44.8276 72.5508V75.5508C44.8276 76.9315 45.9469 78.0508 47.3276 78.0508H50.3276C51.7083 78.0508 52.8276 76.9315 52.8276 75.5508V72.5508C52.8276 71.1701 51.7083 70.0508 50.3276 70.0508H47.3276ZM67.3276 70.0508C65.9469 70.0508 64.8276 71.1701 64.8276 72.5508V75.5508C64.8276 76.9315 65.9469 78.0508 67.3276 78.0508H70.3276C71.7083 78.0508 72.8276 76.9315 72.8276 75.5508V72.5508C72.8276 71.1701 71.7083 70.0508 70.3276 70.0508H67.3276Z" fill="#322E2B"/>
</g>
</svg>
