<svg width="48" height="48" viewBox="0 0 48 48" fill="none" xmlns="http://www.w3.org/2000/svg">
<g id="Contracts">
<g id="Union">
<path d="M36.7734 43.2501V29.0806C37.7051 29.2909 38.6816 29.1601 39.5254 28.7122V44.6252C39.5254 44.9897 39.3809 45.3396 39.123 45.5974C38.8652 45.8553 38.5156 46 38.1504 46H2.375C2.01172 46 1.66016 45.8553 1.40234 45.5974C1.14453 45.3396 1 44.9897 1 44.6252V3.37506C1 3.01031 1.14453 2.66069 1.40234 2.40281C1.66016 2.14492 2.01172 2 2.375 2H38.1504C38.2676 2 38.3828 2.01488 38.4941 2.04343C38.6035 2.07197 38.7109 2.11418 38.8105 2.16883C38.9238 2.23105 39.0293 2.30961 39.123 2.40281C39.25 2.52992 39.3496 2.67948 39.418 2.84221C39.4727 2.97103 39.5078 3.10815 39.5195 3.24868C39.5234 3.2904 39.5254 3.33261 39.5254 3.37506V9.04414C39.1953 9.2603 38.8848 9.50892 38.6035 9.78656L36.7734 11.6154V4.75012H3.75195V43.2501H36.7734Z" fill="#8299EA"/>
<path d="M10.2559 9.99468C9.9043 9.99468 9.5957 10.1755 9.41602 10.449C9.31445 10.6058 9.25586 10.793 9.25586 10.994V11.7257C9.25586 12.2776 9.70312 12.725 10.2559 12.725H30.2695C30.8223 12.725 31.2695 12.2776 31.2695 11.7257V10.994C31.2695 10.4421 30.8223 9.99468 30.2695 9.99468H10.2559Z" fill="#8299EA"/>
<path d="M9.49805 21.3336C9.34766 21.5087 9.25586 21.7371 9.25586 21.9867V22.7257C9.25586 23.0504 9.41016 23.3391 9.65234 23.5216C9.82031 23.6492 10.0293 23.725 10.2559 23.725H19.3809C19.9336 23.725 20.3809 23.2776 20.3809 22.7257V21.9867C20.3809 21.4348 19.9336 20.9874 19.3809 20.9874H10.2559C9.95312 20.9874 9.68164 21.1215 9.49805 21.3336Z" fill="#8299EA"/>
<path d="M10.2598 15.3966L31 15.491L28.2148 18.225H10.2559C9.70312 18.225 9.25586 17.7776 9.25586 17.2257V16.3959C9.25586 15.8423 9.70508 15.3942 10.2598 15.3966Z" fill="#8299EA"/>
<path d="M17.2188 40.1711C16.6914 39.9735 16.2207 39.648 15.8516 39.2242C15.6445 38.7092 15.5781 38.1488 15.6582 37.5998C15.7383 37.0506 15.9609 36.5324 16.3066 36.0974C16.3926 35.9437 16.3926 35.8317 16.334 35.7961C16.2734 35.7595 16.1523 35.8027 16 35.9627C15.2012 36.8269 14.4199 37.7074 13.6562 38.604C12.8379 39.5541 12.5137 39.9269 12.3398 40.0835C12.1562 40.2965 11.9082 40.4422 11.6328 40.4981C11.5078 40.5234 11.3789 40.5295 11.2539 40.5168C11.1035 40.5017 10.9551 40.4595 10.8184 40.3914C10.6816 40.3126 10.5645 40.208 10.4707 40.0845C10.4082 40.0035 10.3555 39.9145 10.3145 39.8193C10.2656 39.7034 10.2363 39.5814 10.2246 39.4577C10.2129 39.3248 10.2246 39.1901 10.2578 39.0591C10.3164 38.7153 11.2988 34.8902 12.1895 31.4526C11.5566 32.5768 10.1855 34.9017 9.02148 36.8645L7.07422 40.1357C6.94141 40.3548 6.73047 40.5132 6.48242 40.5756C6.23438 40.6378 5.97266 40.5995 5.75195 40.4685C5.61914 40.389 5.50977 40.2794 5.42969 40.1504C5.37695 40.0667 5.33789 39.9747 5.3125 39.8774C5.29688 39.8188 5.28906 39.759 5.28516 39.699C5.28125 39.6334 5.2832 39.5675 5.29297 39.5024C5.30273 39.4426 5.31836 39.3838 5.33789 39.327C5.35938 39.265 5.38672 39.2052 5.41992 39.1486C5.45117 39.0937 7.68164 35.3589 9.26758 32.6549C9.99023 31.4221 10.5801 30.4037 10.7656 30.046C10.959 29.5891 11.3184 29.2224 11.7734 29.0201C11.9648 28.9345 12.168 28.8808 12.373 28.8598C12.6523 28.831 12.9375 28.8627 13.209 28.9557C13.6328 29.1279 13.9746 29.4544 14.168 29.8691C14.3613 30.2841 14.3887 30.7565 14.248 31.1915C13.752 33.0999 13.248 35.0566 12.8574 36.5815C13.4883 35.8554 14.1465 35.1088 14.6191 34.6206C14.7793 34.4271 14.9668 34.2593 15.1738 34.1212C15.4375 33.946 15.7305 33.8184 16.041 33.7464C16.5977 33.6181 17.1797 33.6754 17.7012 33.9097C18.0254 34.0741 18.2852 34.3425 18.4395 34.6721C18.5938 35.0017 18.6309 35.3735 18.5488 35.7275C18.4238 36.1674 18.2461 36.59 18.0156 36.9857C17.8398 37.3224 17.6172 38.4101 18.8711 38.432H29.6074C29.8633 38.432 30.1094 38.5335 30.2891 38.7141C30.3711 38.7961 30.4375 38.8915 30.4844 38.9949C30.5117 39.0554 30.5332 39.1188 30.5469 39.184C30.5625 39.2525 30.5703 39.3231 30.5703 39.3945C30.5703 39.65 30.4707 39.8947 30.2891 40.0752C30.1094 40.2558 29.8633 40.3573 29.6074 40.3573H18.8711C18.3125 40.4329 17.7441 40.369 17.2188 40.1711Z" fill="#8299EA"/>
<path d="M45.2051 15.5588L44.4863 14.8396C44.6758 14.5878 44.8184 14.3058 44.9062 14.0079C44.9395 13.8937 44.9668 13.7773 44.9844 13.6595C45.0098 13.4909 45.0195 13.3191 45.0117 13.1466C44.9844 12.5381 44.7441 11.9587 44.334 11.5081C44.082 11.2853 43.793 11.1143 43.4824 11.0006C43.1387 10.8747 42.7695 10.8188 42.3965 10.8408C41.6875 10.8825 41.0254 11.2024 40.5508 11.7308L23.3184 28.9498L22.166 33.2702C22.1562 33.3026 22.1504 33.3361 22.1504 33.37C22.1504 33.3951 22.1543 33.4202 22.1602 33.4449C22.1641 33.4629 22.1699 33.4803 22.1777 33.4971C22.1934 33.5342 22.2168 33.5683 22.2461 33.5971C22.2871 33.6391 22.3398 33.6684 22.3984 33.682C22.457 33.6957 22.5176 33.693 22.5723 33.6745L26.8809 32.5097L42.9688 16.4333L43.6484 17.114C43.6953 17.1613 43.7344 17.2174 43.7598 17.2794C43.7852 17.3413 43.7988 17.4077 43.7988 17.4748C43.7988 17.5419 43.7852 17.6083 43.7598 17.6702C43.7344 17.7322 43.6953 17.7886 43.6484 17.8356L36.8828 24.5968C36.793 24.6868 36.7188 24.791 36.666 24.9039C36.5977 25.0498 36.5605 25.2104 36.5605 25.3748C36.5605 25.6664 36.6777 25.9462 36.8828 26.1524C37.0898 26.3588 37.3691 26.4744 37.6621 26.4744C37.9531 26.4742 38.2344 26.3583 38.4395 26.1519L45.2051 19.391C45.457 19.1392 45.6582 18.8406 45.7949 18.5117C45.8574 18.359 45.9062 18.2011 45.9414 18.0403C45.9805 17.8547 46 17.6649 46 17.4741C46 17.1181 45.9316 16.7656 45.7949 16.4367C45.6582 16.1078 45.457 15.8089 45.2051 15.5588Z" fill="#8299EA"/>
</g>
</g>
</svg>
