<svg width="24" height="24" viewBox="0 0 24 24" fill="none" xmlns="http://www.w3.org/2000/svg">
<g id="Facebook">
<path id="Frame 1123 (Traced)" fill-rule="evenodd" clip-rule="evenodd" d="M3.33604 2.1612C2.87701 2.36601 2.40273 2.88052 2.17833 3.41736C2.02062 3.79452 1.99793 4.89309 2.00014 12.0236C2.00258 19.7217 2.01515 20.2244 2.21755 20.6626C2.47756 21.2256 2.84605 21.5799 3.42124 21.82C3.7846 21.9717 4.54485 22 8.25857 22H12.6647L12.9178 21.7309C13.1665 21.4662 13.1709 21.3995 13.1709 17.7947C13.1709 13.5637 13.2196 13.7463 12.0634 13.6505L11.425 13.5976V13.0305V12.4634H12.0449C12.5424 12.4634 12.7147 12.4103 12.9178 12.1943C13.1493 11.948 13.1711 11.8018 13.1734 10.4789C13.1762 8.87531 13.3203 8.37081 13.9418 7.78849C14.5036 7.26212 15.0245 7.1136 16.3096 7.1136H17.4772V7.6801V8.2466L16.6395 8.32905C15.8784 8.40395 15.7624 8.45094 15.3707 8.84217C15.0101 9.20247 14.9261 9.38203 14.8563 9.94074C14.8103 10.308 14.796 10.9289 14.8243 11.3206C14.8904 12.2338 15.1337 12.4634 16.0353 12.4634H16.6625V13.0309V13.5985L15.9685 13.6486C14.7429 13.7372 14.8003 13.5327 14.8003 17.811V21.4942L15.0696 21.7472C15.3287 21.9903 15.4323 21.9999 17.7756 21.9974C19.8805 21.9952 20.2759 21.966 20.679 21.7831C21.2673 21.5161 21.8677 20.8406 21.9572 20.3452C21.9951 20.1359 22.0108 16.2451 21.9922 11.6988L21.9582 3.43306L21.6458 2.96146C21.4576 2.67734 21.1305 2.39171 20.8234 2.24308C20.318 1.99861 20.2385 1.9964 11.9993 2.00094C5.3122 2.00466 3.61689 2.03595 3.33604 2.1612ZM20.2938 3.71764C20.4144 3.83801 20.4515 5.48982 20.4766 11.8463C20.5044 18.8766 20.4868 19.8565 20.3284 20.0978C20.1518 20.3673 20.1168 20.3718 18.2311 20.3718H16.3133V17.8132V15.2546H16.6353C17.1019 15.2546 17.7348 14.878 17.9857 14.4511C18.2564 13.9903 18.361 12.797 18.187 12.1542C18.0283 11.5686 17.4186 10.9947 16.8395 10.8861C16.4542 10.8139 16.4297 10.7824 16.4297 10.3571V9.9048L17.1572 9.90434C18.5561 9.90352 19.1837 9.11652 19.0795 7.49355C19.0206 6.57641 18.855 6.23647 18.2466 5.78336C17.958 5.56844 17.7595 5.54367 16.3334 5.54425C14.8276 5.54495 14.7031 5.56298 14.0165 5.8792C13.143 6.28148 12.3438 7.09104 11.9312 7.99155C11.7117 8.47071 11.6227 8.90253 11.5734 9.72675L11.5079 10.824L11.1481 10.903C10.2202 11.1066 9.79548 11.787 9.79583 13.0693C9.79594 13.6443 9.86147 14.0474 9.99951 14.3219C10.2338 14.7879 10.8683 15.2546 11.2677 15.2546H11.5414V17.8132V20.3718H7.72388C4.90985 20.3718 3.86968 20.3352 3.76668 20.2322C3.66077 20.1264 3.62702 18.1351 3.62702 11.9816V3.87035L3.88889 3.68706C4.12225 3.52377 5.02239 3.50714 12.1466 3.53505C18.5181 3.56006 20.1734 3.59716 20.2938 3.71764Z" fill="#8299EA"/>
</g>
</svg>
