<svg width="49" height="48" viewBox="0 0 49 48" fill="none" xmlns="http://www.w3.org/2000/svg">
<g id="Facebook">
<path id="Frame 1123 (Traced)" fill-rule="evenodd" clip-rule="evenodd" d="M6.2056 3.33852C5.24162 3.76861 4.24563 4.84908 3.77439 5.97645C3.44321 6.76849 3.39555 9.07548 3.40019 24.0495C3.40533 40.2155 3.43172 41.2713 3.85676 42.1914C4.40279 43.3737 5.17661 44.1178 6.38451 44.6219C7.14757 44.9407 8.74409 45 16.5429 45H25.7957L26.3273 44.4349C26.8497 43.879 26.8587 43.739 26.8587 36.1689C26.8587 27.2838 26.9611 27.6672 24.5331 27.466L23.1925 27.3549V26.164V24.9731H24.4942C25.5389 24.9731 25.9008 24.8615 26.3273 24.408C26.8135 23.8907 26.8592 23.5837 26.8641 20.8056C26.8699 17.4382 27.1725 16.3787 28.4777 15.1558C29.6575 14.0504 30.7513 13.7386 33.4501 13.7386H35.9021V14.9282V16.1179L34.1428 16.291C32.5445 16.4483 32.3009 16.547 31.4784 17.3686C30.7212 18.1252 30.5447 18.5023 30.3981 19.6756C30.3015 20.4468 30.2715 21.7508 30.3309 22.5733C30.4697 24.491 30.9808 24.9731 32.874 24.9731H34.1912V26.165V27.3568L32.7337 27.4621C30.16 27.6482 30.2805 27.2186 30.2805 36.2031V43.9378L30.8461 44.469C31.3902 44.9797 31.6077 44.9998 36.5288 44.9946C40.949 44.99 41.7793 44.9287 42.6257 44.5445C43.8612 43.9838 45.1222 42.5653 45.3101 41.5249C45.3895 41.0855 45.4225 32.9148 45.3834 23.3676L45.3121 6.00942L44.6561 5.01907C44.2608 4.42241 43.574 3.82259 42.929 3.51046C41.8678 2.99709 41.7008 2.99245 24.3984 3.00197C10.3555 3.00979 6.79537 3.07549 6.2056 3.33852ZM41.8169 6.60705C42.0701 6.85983 42.1481 10.3286 42.2007 23.6773C42.2591 38.441 42.2222 40.4986 41.8895 41.0054C41.5187 41.5713 41.4452 41.5808 37.4852 41.5808H33.4579V36.2077V30.8347H34.134C35.1138 30.8347 36.443 30.0438 36.9699 29.1473C37.5384 28.1796 37.7579 25.6736 37.3925 24.3237C37.0594 23.094 35.7789 21.8888 34.5629 21.6609C33.7537 21.5092 33.7023 21.443 33.7023 20.5499V19.6001L35.2299 19.5991C38.1678 19.5974 39.4857 17.9447 39.2669 14.5365C39.1433 12.6105 38.7955 11.8966 37.5177 10.9451C36.9118 10.4937 36.4948 10.4417 33.5 10.4429C30.338 10.4444 30.0764 10.4822 28.6346 11.1463C26.8003 11.9911 25.1219 13.6912 24.2554 15.5823C23.7945 16.5885 23.6075 17.4953 23.5041 19.2262L23.3665 21.5305L22.611 21.6963C20.6623 22.124 19.7704 23.5527 19.7711 26.2456C19.7714 27.4531 19.909 28.2996 20.1989 28.8759C20.6909 29.8546 22.0234 30.8347 22.862 30.8347H23.4369V36.2077V41.5808H15.4201C9.51058 41.5808 7.32624 41.5038 7.10993 41.2877C6.88751 41.0655 6.81663 36.8838 6.81663 23.9613V6.92772L7.36657 6.54282C7.85662 6.19992 9.74693 6.165 24.7078 6.22361C38.0879 6.27612 41.564 6.35403 41.8169 6.60705Z" fill="#8299EA"/>
</g>
</svg>
