<svg width="97" height="117" viewBox="0 0 97 117" fill="none" xmlns="http://www.w3.org/2000/svg">
<g id="Founder &#38; CEO">
<g id="Union">
<path fill-rule="evenodd" clip-rule="evenodd" d="M37.0586 44.0508C37.0586 37.6995 42.2073 32.5508 48.5586 32.5508C54.9099 32.5508 60.0586 37.6995 60.0586 44.0508C60.0586 50.4021 54.9099 55.5508 48.5586 55.5508C42.2073 55.5508 37.0586 50.4021 37.0586 44.0508ZM48.5586 35.5508C43.8642 35.5508 40.0586 39.3564 40.0586 44.0508C40.0586 48.7452 43.8642 52.5508 48.5586 52.5508C53.253 52.5508 57.0586 48.7452 57.0586 44.0508C57.0586 39.3564 53.253 35.5508 48.5586 35.5508Z" fill="#322E2B"/>
<path fill-rule="evenodd" clip-rule="evenodd" d="M55.0117 62.4488C62.8477 64.7119 68.2892 70.976 68.2892 78.0508C68.2892 78.5914 68.7131 79.0508 69.2537 79.0508H70.2597C70.8214 79.0508 71.2892 78.6125 71.2892 78.0508C71.2892 67.0586 60.8706 58.5508 48.5584 58.5508C36.2462 58.5508 25.8276 67.0586 25.8276 78.0508C25.8276 78.6125 26.2954 79.0508 26.8571 79.0508H27.8631C28.4037 79.0508 28.8276 78.5914 28.8276 78.0508C28.8276 70.9924 34.2438 64.741 42.0506 62.4646C42.0619 62.5239 42.074 62.5817 42.0865 62.6376C42.2289 63.2758 42.4842 63.9279 42.7748 64.5195C43.068 65.1165 43.4192 65.6968 43.783 66.1942C44.0165 66.5135 44.2831 66.8371 44.5703 67.1156L42.6143 74.8603C42.4028 75.6978 42.2172 76.4327 42.1257 77.062C42.0271 77.7399 42.0169 78.413 42.2326 79.1163L42.2336 79.1193L42.2469 79.1632L42.2552 79.1899C42.4811 79.8875 42.8764 80.4389 43.3432 80.948C43.7771 81.4214 44.3494 81.9371 45.0091 82.5316L45.1288 82.6395C45.6599 83.1177 46.1595 83.5677 46.6213 83.8868C47.1374 84.2435 47.7543 84.5454 48.524 84.5528L48.5385 84.5529H48.5785L48.5953 84.5528C49.3638 84.5442 49.9795 84.2434 50.4961 83.8864C50.9578 83.5674 51.4572 83.1177 51.9882 82.6394L52.1079 82.5317C52.7675 81.9372 53.3398 81.4214 53.7738 80.948C54.2406 80.4389 54.6358 79.8875 54.8617 79.1899L54.8701 79.1632L54.8834 79.1193L54.8843 79.1163C55.1002 78.4123 55.0895 77.7384 54.9905 77.0608C54.8989 76.4334 54.7139 75.7009 54.5032 74.8671L52.549 67.1207C53.2812 66.4346 53.9344 65.4409 54.3747 64.4895C54.6491 63.8965 54.8764 63.2453 54.9881 62.5977C54.9965 62.5488 55.0044 62.4992 55.0117 62.4488ZM52.0622 61.8078C50.9289 61.6391 49.7584 61.5508 48.5584 61.5508C47.3331 61.5508 46.1385 61.6429 44.9829 61.8186C44.9902 61.8661 45.0004 61.921 45.0144 61.9841C45.0903 62.3239 45.2463 62.7465 45.4676 63.197C45.6863 63.6423 45.9475 64.0718 46.2045 64.4232C46.477 64.7958 46.6845 64.9977 46.7752 65.0638L46.7769 65.0651C46.7906 65.0751 46.8017 65.0833 46.8564 65.1031C46.9491 65.1366 47.076 65.1714 47.3677 65.2481L47.3691 65.2485C47.8524 65.3762 48.286 65.4529 48.5585 65.4529C48.831 65.4529 49.2646 65.3762 49.7479 65.2485L49.7492 65.2481C50.0415 65.1712 50.1683 65.1366 50.2609 65.1031C50.3134 65.0841 50.3234 65.0766 50.3333 65.0692L50.3356 65.0675L50.343 65.062C50.6808 64.8166 51.2406 64.1187 51.6521 63.2295C51.8471 62.8081 51.9758 62.4122 52.0317 62.088C52.0517 61.9719 52.06 61.8795 52.0622 61.8078ZM47.3595 68.3233C47.7469 68.3978 48.1641 68.4529 48.5585 68.4529C48.9532 68.4529 49.3707 68.3977 49.7584 68.3231L51.5778 75.5354C51.8102 76.4556 51.9554 77.0378 52.022 77.4941C52.0835 77.9158 52.0566 78.1052 52.016 78.2373L52.0143 78.2429L52.0043 78.2758C51.9588 78.411 51.8625 78.5935 51.5625 78.9207C51.235 79.278 50.7684 79.7002 50.0405 80.3563C49.4281 80.9076 49.0736 81.2228 48.7906 81.4184C48.6585 81.5097 48.5875 81.5419 48.5581 81.5521C48.5286 81.5417 48.4579 81.5094 48.327 81.4189C48.0437 81.2231 47.6888 80.9076 47.0765 80.3563C46.3485 79.7002 45.882 79.278 45.5545 78.9207C45.2545 78.5935 45.1582 78.411 45.1127 78.2758L45.1027 78.2429L45.101 78.2373C45.0601 78.1045 45.0332 77.9149 45.0945 77.4938C45.1608 77.0379 45.3055 76.4562 45.5378 75.5358L47.3595 68.3233Z" fill="#322E2B"/>
</g>
</g>
</svg>
