<svg width="96" height="96" viewBox="0 0 96 96" fill="none" xmlns="http://www.w3.org/2000/svg">
<g id="Frame 964">
<g id="Union">
<path d="M53.9415 35.0426C55.0972 35.0426 56.0363 34.1228 56.0363 32.988C56.0363 31.8542 55.0972 30.9355 53.9415 30.9355C52.7853 30.9355 51.8462 31.8536 51.8462 32.988C51.8462 34.1228 52.7847 35.0426 53.9415 35.0426Z" fill="#322E2B"/>
<path d="M69.0903 32.9879C69.0903 34.1228 68.1523 35.0426 66.9955 35.0426C65.8388 35.0426 64.9019 34.1228 64.9019 32.9879C64.9019 31.8536 65.8388 30.9354 66.9955 30.9354C68.1518 30.9354 69.0903 31.8541 69.0903 32.9879Z" fill="#322E2B"/>
<path d="M60.4687 35.0426C61.6249 35.0426 62.5635 34.1228 62.5635 32.9879C62.5635 31.8541 61.6249 30.9354 60.4687 30.9354C59.3102 30.9354 58.3728 31.8536 58.3728 32.9879C58.3728 34.1228 59.3108 35.0426 60.4687 35.0426Z" fill="#322E2B"/>
<path fill-rule="evenodd" clip-rule="evenodd" d="M21.0002 32.1628C21.0002 28.7307 23.8291 26 27.2569 26H68.9024C72.3307 26 75.158 28.7312 75.158 32.1628C75.158 32.1767 75.1578 32.1905 75.1574 32.2043V38.1849L75.1572 38.2095V64.0822C75.1572 67.5121 72.3295 70.2428 68.9017 70.2428H27.2561C23.8289 70.2428 20.9994 67.5127 21 64.0822V38.1845L21.0002 38.1599V32.1628ZM72.1572 39.6849H24V64.0822C23.9996 65.7984 25.428 67.2428 27.2561 67.2428H68.9017C70.7293 67.2428 72.1572 65.7992 72.1572 64.0822V39.6849ZM72.1574 32.1628V36.6845H24.0002V32.1628C24.0002 30.4436 25.4293 29 27.2569 29H68.9024C70.7175 29 72.1391 30.4241 72.1578 32.1288C72.1576 32.1401 72.1574 32.1514 72.1574 32.1628Z" fill="#322E2B"/>
</g>
</g>
</svg>
