<svg width="97" height="117" viewBox="0 0 97 117" fill="none" xmlns="http://www.w3.org/2000/svg">
<g id="Frontend">
<g id="Union">
<path d="M41.9932 51.4152C41.5838 50.9534 40.7442 51.0758 40.4014 51.4152V51.4187L34.0834 57.7366C33.9196 57.9018 33.8276 58.125 33.8276 58.3576C33.8276 58.5902 33.9196 58.8134 34.0834 58.9785L40.118 64.9922C40.4364 65.3105 41.3949 65.384 41.8637 64.9187C42.252 64.5339 42.2066 63.5648 41.8637 63.2255L36.7002 58.3349L41.9932 53.1923C42.336 52.825 42.5004 51.9504 41.9932 51.4152Z" fill="#322E2B"/>
<path d="M63.1475 57.7331L56.8295 51.4152V51.4187C56.4867 51.0793 55.6436 50.9814 55.1993 51.4187C54.7445 51.8699 54.8565 52.776 55.1993 53.1433L60.5518 58.3419L55.3672 63.159C55.0279 63.4984 54.874 64.5059 55.3672 64.9957C55.892 65.5099 56.7981 65.3105 57.1164 64.9957L63.1475 58.975C63.3114 58.8099 63.4033 58.5867 63.4033 58.3541C63.4033 58.1215 63.3114 57.8983 63.1475 57.7331Z" fill="#322E2B"/>
<path d="M51.9074 49.617C51.3652 49.4141 50.5151 49.701 50.3437 50.1558H50.3402L44.5679 65.9332C44.393 66.3845 44.9212 67.0562 45.4075 67.2241C45.8658 67.3955 46.6844 67.2136 46.8523 66.7588L52.5896 50.9814C52.7295 50.5266 52.4252 49.8094 51.9074 49.617Z" fill="#322E2B"/>
<path fill-rule="evenodd" clip-rule="evenodd" d="M48.8276 82.5508C62.0825 82.5508 72.8276 71.8056 72.8276 58.5508C72.8276 45.2959 62.0825 34.5508 48.8276 34.5508C35.5728 34.5508 24.8276 45.2959 24.8276 58.5508C24.8276 71.8056 35.5728 82.5508 48.8276 82.5508ZM48.8276 79.5411C37.235 79.5411 27.8373 70.1434 27.8373 58.5508C27.8373 46.9581 37.235 37.5604 48.8276 37.5604C60.4203 37.5604 69.818 46.9581 69.818 58.5508C69.818 70.1434 60.4203 79.5411 48.8276 79.5411Z" fill="#322E2B"/>
</g>
</g>
</svg>
