<svg width="24" height="24" viewBox="0 0 24 24" fill="none" xmlns="http://www.w3.org/2000/svg">
<g id="Instagram">
<g id="Union">
<path d="M16.6259 6.63652C16.6259 6.2302 16.9558 5.90077 17.3614 5.90077H17.3709C17.7775 5.90077 18.1075 6.2302 18.1075 6.63652C18.1075 7.04284 17.7775 7.37213 17.3709 7.37213H17.3614C16.9558 7.37213 16.6259 7.04284 16.6259 6.63652Z" fill="#0803FB"/>
<path fill-rule="evenodd" clip-rule="evenodd" d="M8.3768 8.37676C9.33795 7.41577 10.6408 6.876 12 6.876C13.3592 6.876 14.6621 7.41577 15.6232 8.37676C16.5844 9.33775 17.124 10.6411 17.124 12C17.124 13.3589 16.5844 14.6622 15.6232 15.6232C14.6621 16.5842 13.3592 17.124 12 17.124C10.6408 17.124 9.33795 16.5842 8.3768 15.6232C7.41565 14.6622 6.876 13.3589 6.876 12C6.876 10.6411 7.41565 9.33775 8.3768 8.37676ZM12 8.34736C11.0314 8.34736 10.1022 8.73212 9.41671 9.41718C8.7323 10.1022 8.34699 11.0313 8.34699 12C8.34699 12.9687 8.7323 13.8978 9.41671 14.5828C10.1022 15.2679 11.0314 15.6526 12 15.6526C12.9686 15.6526 13.8978 15.2679 14.5833 14.5828C15.2677 13.8978 15.653 12.9687 15.653 12C15.653 11.0313 15.2677 10.1022 14.5833 9.41718C13.8978 8.73212 12.9686 8.34736 12 8.34736Z" fill="#0803FB"/>
<path fill-rule="evenodd" clip-rule="evenodd" d="M11.9436 2H12.0564C14.1916 2 15.8701 2 17.1804 2.17615C18.5237 2.3567 19.5902 2.73428 20.4279 3.57207C21.2656 4.40973 21.6434 5.47583 21.8244 6.81879C22 8.12916 22 9.80754 22 11.9439V12.056C22 14.1919 22 15.8703 21.8244 17.1808C21.6434 18.5238 21.2656 19.5903 20.4279 20.4279C19.5902 21.2657 18.5247 21.6433 17.1815 21.8238C15.8712 22 14.1927 22 12.0564 22H11.9436C9.80841 22 8.12986 22 6.81958 21.8238C5.47632 21.6433 4.40979 21.2657 3.57211 20.4279C2.73443 19.5903 2.35657 18.5242 2.17563 17.1812C2 15.8708 2 14.1925 2 12.056V11.944C2 9.80807 2 8.12969 2.17563 6.81919C2.35657 5.47622 2.73443 4.40973 3.57211 3.57207C4.40979 2.73428 5.47525 2.3567 6.81852 2.17615C7.33475 2.1067 7.90846 2.06466 8.54497 2.03912C9.52315 2 10.6493 2 11.9436 2ZM7.01437 3.63447C5.83502 3.79306 5.13145 4.09374 4.61203 4.61249C4.09367 5.1311 3.79244 5.83518 3.63385 7.01517C3.47312 8.21631 3.471 9.79583 3.471 12C3.471 14.2047 3.47312 15.7841 3.63385 16.9851C3.79244 18.1649 4.09367 18.8688 4.61203 19.3875C4.88558 19.6608 5.21022 19.8735 5.62853 20.0368C6.00532 20.1835 6.45663 20.2905 7.01543 20.3655C8.21607 20.527 9.79564 20.5285 12 20.5285C14.2044 20.5285 15.7839 20.527 16.9856 20.3655C18.165 20.2069 18.8685 19.9063 19.388 19.3875C19.9063 18.8689 20.2076 18.1648 20.3662 16.9848C20.5269 15.7837 20.529 14.2042 20.529 12C20.529 9.7953 20.5269 8.21591 20.3662 7.0149C20.2076 5.83505 19.9063 5.13124 19.388 4.61249C19.1357 4.3609 18.8409 4.16053 18.4683 4.00287C18.0734 3.8355 17.5923 3.71616 16.9846 3.63447C15.7839 3.47295 14.2044 3.47149 12 3.47149C9.79564 3.47149 8.21607 3.47295 7.01437 3.63447Z" fill="#0803FB"/>
</g>
</g>
</svg>
