<svg width="49" height="48" viewBox="0 0 49 48" fill="none" xmlns="http://www.w3.org/2000/svg">
<g id="Instagram">
<g id="Union">
<path d="M34.5141 12.7367C34.5141 11.8834 35.207 11.1916 36.0587 11.1916H36.0788C36.9326 11.1916 37.6256 11.8834 37.6256 12.7367C37.6256 13.59 36.9326 14.2815 36.0788 14.2815H36.0587C35.207 14.2815 34.5141 13.59 34.5141 12.7367Z" fill="url(#paint0_linear_542_11612)"/>
<path fill-rule="evenodd" clip-rule="evenodd" d="M17.1911 16.3912C19.2095 14.3731 21.9454 13.2396 24.7998 13.2396C27.6542 13.2396 30.3901 14.3731 32.4085 16.3912C34.4269 18.4093 35.5602 21.1462 35.5602 24C35.5602 26.8538 34.4269 29.5907 32.4085 31.6088C30.3901 33.6269 27.6542 34.7604 24.7998 34.7604C21.9454 34.7604 19.2095 33.6269 17.1911 31.6088C15.1727 29.5907 14.0394 26.8538 14.0394 24C14.0394 21.1462 15.1727 18.4093 17.1911 16.3912ZM24.7998 16.3294C22.7657 16.3294 20.8144 17.1375 19.3749 18.5761C17.9376 20.0147 17.1285 21.9657 17.1285 24C17.1285 26.0343 17.9376 27.9853 19.3749 29.4239C20.8144 30.8625 22.7657 31.6706 24.7998 31.6706C26.8339 31.6706 28.7852 30.8625 30.2247 29.4239C31.662 27.9853 32.4711 26.0343 32.4711 24C32.4711 21.9657 31.662 20.0147 30.2247 18.5761C28.7852 17.1375 26.8339 16.3294 24.7998 16.3294Z" fill="url(#paint1_linear_542_11612)"/>
<path fill-rule="evenodd" clip-rule="evenodd" d="M24.6813 3H24.9183C29.4021 3 32.9271 3 35.6787 3.36992C38.4995 3.74906 40.7392 4.54199 42.4984 6.30135C44.2575 8.06043 45.051 10.2992 45.431 13.1195C45.7998 15.8712 45.7998 19.3958 45.7998 23.8821V24.1176C45.7998 28.6031 45.7998 32.1276 45.431 34.8797C45.051 37.6999 44.2575 39.9396 42.4984 41.6987C40.7392 43.458 38.5018 44.2509 35.6809 44.6301C32.9293 45 29.4044 45 24.9183 45H24.6813C20.1975 45 16.6725 45 13.9209 44.6301C11.1001 44.2509 8.86037 43.458 7.10124 41.6987C5.34211 39.9396 4.54861 37.7008 4.16862 34.8805C3.7998 32.1288 3.7998 28.6042 3.7998 24.1176V23.8824C3.7998 19.3969 3.7998 15.8724 4.16862 13.1203C4.54861 10.3001 5.34211 8.06043 7.10124 6.30135C8.86037 4.54199 11.0978 3.74906 13.9187 3.36992C15.0028 3.22408 16.2076 3.13579 17.5442 3.08214C19.5984 3 21.9633 3 24.6813 3ZM14.33 6.43239C11.8533 6.76543 10.3759 7.39686 9.28506 8.48623C8.19651 9.57532 7.56393 11.0539 7.23089 13.5319C6.89336 16.0542 6.88889 19.3712 6.88889 24C6.88889 28.6299 6.89336 31.9466 7.23089 34.4687C7.56393 36.9464 8.19651 38.4244 9.28506 39.5138C9.85952 40.0877 10.5413 40.5344 11.4197 40.8772C12.211 41.1854 13.1587 41.41 14.3322 41.5676C16.8536 41.9068 20.1706 41.9099 24.7998 41.9099C29.429 41.9099 32.7461 41.9068 35.2696 41.5676C37.7463 41.2346 39.2238 40.6031 40.3145 39.5138C41.4031 38.4247 42.0357 36.9461 42.3687 34.4681C42.7062 31.9458 42.7107 28.6288 42.7107 24C42.7107 19.3701 42.7062 16.0534 42.3687 13.5313C42.0357 11.0536 41.4031 9.5756 40.3145 8.48623C39.7848 7.95789 39.1656 7.53712 38.3833 7.20604C37.554 6.85455 36.5437 6.60394 35.2674 6.43239C32.7461 6.0932 29.429 6.09013 24.7998 6.09013C20.1706 6.09013 16.8536 6.0932 14.33 6.43239Z" fill="url(#paint2_linear_542_11612)"/>
</g>
</g>
<defs>
<linearGradient id="paint0_linear_542_11612" x1="3.7998" y1="23.9118" x2="45.7666" y2="23.9118" gradientUnits="userSpaceOnUse">
<stop stop-color="#D081CD"/>
<stop offset="1" stop-color="#5F57F6"/>
</linearGradient>
<linearGradient id="paint1_linear_542_11612" x1="3.7998" y1="23.9118" x2="45.7666" y2="23.9118" gradientUnits="userSpaceOnUse">
<stop stop-color="#D081CD"/>
<stop offset="1" stop-color="#5F57F6"/>
</linearGradient>
<linearGradient id="paint2_linear_542_11612" x1="3.7998" y1="23.9118" x2="45.7666" y2="23.9118" gradientUnits="userSpaceOnUse">
<stop stop-color="#D081CD"/>
<stop offset="1" stop-color="#5F57F6"/>
</linearGradient>
</defs>
</svg>
