<svg width="24" height="24" viewBox="0 0 24 24" fill="none" xmlns="http://www.w3.org/2000/svg">
<g id="Linkedin">
<g id="Union">
<path d="M7.38462 8.81318H8.7033V7.27472H7.38462V8.81318Z" fill="#0803FB"/>
<path d="M13.3187 9.9121C12.6499 9.9121 12.0015 10.1087 11.4506 10.47V10.022H9.91209V16.6154H11.4506V13.3187C11.4506 12.8232 11.6474 12.3481 11.9977 11.9977C12.3481 11.6474 12.8232 11.4506 13.3187 11.4506C13.8141 11.4506 14.2893 11.6474 14.6397 11.9977C14.99 12.3481 15.1868 12.8232 15.1868 13.3187V16.6154H16.7253V13.3187C16.7253 12.4152 16.3664 11.5487 15.7275 10.9099C15.0886 10.271 14.2222 9.9121 13.3187 9.9121Z" fill="#0803FB"/>
<path d="M7.27473 10.022V16.6154H8.81319V10.022H7.27473Z" fill="#0803FB"/>
<path fill-rule="evenodd" clip-rule="evenodd" d="M4.08791 2C3.53417 2 3.0031 2.21998 2.61153 2.61154C2.21998 3.00311 2 3.53417 2 4.0879V19.9121C2 20.4658 2.21998 20.9969 2.61153 21.3885C3.0031 21.78 3.53417 22 4.08791 22H19.9121C20.4658 22 20.9969 21.78 21.3885 21.3885C21.78 20.9969 22 20.4658 22 19.9121V4.0879C22 3.53417 21.78 3.00311 21.3885 2.61154C20.9969 2.21998 20.4658 2 19.9121 2H4.08791ZM3.69939 3.69941C3.80243 3.59634 3.94219 3.53846 4.08791 3.53846H19.9121C20.0578 3.53846 20.1976 3.59634 20.3006 3.69941C20.4037 3.80245 20.4615 3.9422 20.4615 4.0879V19.9121C20.4615 20.0578 20.4037 20.1976 20.3006 20.3006C20.1976 20.4036 20.0578 20.4615 19.9121 20.4615H4.08791C3.94219 20.4615 3.80243 20.4037 3.69939 20.3006C3.59635 20.1976 3.53846 20.0578 3.53846 19.9121V4.0879C3.53846 3.9422 3.59635 3.80245 3.69939 3.69941Z" fill="#0803FB"/>
</g>
</g>
</svg>
