<svg width="49" height="48" viewBox="0 0 49 48" fill="none" xmlns="http://www.w3.org/2000/svg">
<g id="Linkedin">
<g id="Union">
<path d="M15.1412 17.3077H17.9104V14.0769H15.1412V17.3077Z" fill="#514FFB"/>
<path d="M27.6027 19.6154C26.1984 19.6154 24.8366 20.0283 23.6797 20.787V19.8462H20.4489V33.6923H23.6797V26.7692C23.6797 25.7288 24.093 24.7309 24.8287 23.9952C25.5644 23.2595 26.5623 22.8462 27.6027 22.8462C28.6432 22.8462 29.641 23.2595 30.3768 23.9952C31.1125 24.7309 31.5258 25.7288 31.5258 26.7692V33.6923H34.7566V26.7692C34.7566 24.8719 34.0029 23.0523 32.6613 21.7107C31.3197 20.3691 29.5 19.6154 27.6027 19.6154Z" fill="#514FFB"/>
<path d="M14.9104 19.8462V33.6923H18.1412V19.8462H14.9104Z" fill="#514FFB"/>
<path fill-rule="evenodd" clip-rule="evenodd" d="M8.21811 3C7.05524 3 5.94 3.46195 5.11772 4.28424C4.29545 5.10652 3.8335 6.22176 3.8335 7.3846V40.6154C3.8335 41.7782 4.29545 42.8935 5.11772 43.7158C5.94 44.5381 7.05524 45 8.21811 45H41.4489C42.6118 45 43.727 44.5381 44.5493 43.7158C45.3715 42.8935 45.8335 41.7782 45.8335 40.6154V7.3846C45.8335 6.22176 45.3715 5.10652 44.5493 4.28424C43.727 3.46195 42.6118 3 41.4489 3H8.21811ZM7.40222 6.56875C7.6186 6.3523 7.91209 6.23077 8.21811 6.23077H41.4489C41.7549 6.23077 42.0484 6.3523 42.2648 6.56875C42.4812 6.78514 42.6027 7.07862 42.6027 7.3846V40.6154C42.6027 40.9214 42.4812 41.2149 42.2648 41.4312C42.0484 41.6476 41.7549 41.7692 41.4489 41.7692H8.21811C7.91209 41.7692 7.6186 41.6477 7.40222 41.4312C7.18583 41.2149 7.06427 40.9214 7.06427 40.6154V7.3846C7.06427 7.07862 7.18583 6.78514 7.40222 6.56875Z" fill="#514FFB"/>
</g>
</g>
</svg>
