<svg width="103" height="24" viewBox="0 0 103 24" fill="none" xmlns="http://www.w3.org/2000/svg">
<g id="Logo TXT">
<path d="M24.8511 9.39869L24.8246 18.6499C24.8246 18.9627 24.7011 19.137 24.454 19.1728C24.1716 19.2085 23.5273 19.2264 22.5213 19.2264C21.5505 19.2264 20.8754 19.1907 20.496 19.1192C20.2047 19.0655 20.0591 18.8734 20.0591 18.5426C20.0591 17.7739 20.0724 16.6164 20.0988 15.0701C20.1253 13.5237 20.1386 12.3662 20.1386 11.5975C20.1386 10.5517 19.6135 10.0288 18.5633 10.0288C18.2103 10.0288 17.7955 10.1719 17.319 10.4579C16.7983 10.7707 16.538 11.097 16.538 11.4366V14.7483C16.538 15.1773 16.5468 15.8254 16.5644 16.6924C16.5821 17.5505 16.5909 18.194 16.5909 18.6231C16.5909 18.9538 16.4541 19.137 16.1806 19.1728C15.907 19.2085 15.1392 19.2264 13.8772 19.2264C13.1536 19.2264 12.6329 19.1907 12.3152 19.1192C11.9975 19.0477 11.8387 18.8912 11.8387 18.6499C11.8387 17.9438 11.8431 16.8846 11.8519 15.4723C11.8607 14.0511 11.8652 12.9874 11.8652 12.2813C11.8652 9.35847 11.8343 6.94064 11.7725 5.02783C11.746 4.35745 11.724 3.68707 11.7063 3.0167C11.6622 2.23906 11.5828 1.57315 11.468 1.01897C11.4416 0.902775 11.4283 0.81786 11.4283 0.76423C11.4283 0.630154 11.4945 0.540771 11.6269 0.496079C11.9005 0.415634 12.302 0.366473 12.8315 0.348596C13.5375 0.321781 13.9478 0.299435 14.0626 0.281558L16.4585 0C16.5997 0 16.6703 0.0938528 16.6703 0.281558C16.6703 0.567586 16.6527 0.956405 16.6174 1.44801C16.5821 2.02007 16.5644 2.40889 16.5644 2.61447C16.5115 4.63454 16.485 6.23004 16.485 7.40096C16.485 7.57973 16.5291 7.66912 16.6174 7.66912C16.635 7.66912 16.8601 7.51269 17.2925 7.19985C17.8044 6.83338 18.2941 6.54288 18.7619 6.32836C19.459 6.01552 20.1341 5.8591 20.7872 5.8591C21.9168 5.8591 22.8611 6.15853 23.62 6.7574C24.4407 7.40096 24.8511 8.28139 24.8511 9.39869Z" fill="url(#paint0_linear_871_1802)"/>
<path d="M9.66333 13.6623C9.66333 15.4768 8.90879 17.032 7.39973 18.3281C6.07598 19.4722 4.46543 20.2007 2.56806 20.5135C2.49746 20.5225 2.4401 20.5269 2.39598 20.5269C2.193 20.5269 1.74293 19.9013 1.04576 18.6499C0.348586 17.3896 0 16.6209 0 16.3438C0 16.2455 0.0661872 16.1829 0.198562 16.1561C1.47818 15.8611 2.32538 15.6108 2.74015 15.4053C3.65794 14.9405 4.11684 14.2522 4.11684 13.3405C4.11684 12.7595 3.81679 12.1115 3.2167 11.3964C2.17535 10.1808 1.61055 9.50595 1.52231 9.37187C0.913383 8.44228 0.608922 7.41437 0.608922 6.28814C0.608922 4.65242 1.35463 3.29379 2.84605 2.21224C4.06389 1.31841 5.55972 0.737415 7.33354 0.469264C7.43061 0.460326 7.50563 0.455856 7.55858 0.455856C7.69095 0.455856 7.79685 0.563117 7.87627 0.777637C8.10572 1.43014 8.63963 2.61 9.478 4.31723C9.50448 4.37086 9.51772 4.41555 9.51772 4.4513C9.51772 4.60326 9.43829 4.67923 9.27944 4.67923C9.20884 4.67923 9.08971 4.66583 8.92203 4.63901C8.75436 4.6122 8.6264 4.59879 8.53815 4.59879C7.90275 4.59879 7.34678 4.74627 6.87023 5.04124C6.29661 5.38089 6.0098 5.85463 6.0098 6.46244C6.0098 7.00768 6.32749 7.67805 6.96289 8.47357C8.08366 9.9037 8.67052 10.6545 8.72347 10.726C9.35004 11.7093 9.66333 12.688 9.66333 13.6623Z" fill="url(#paint1_linear_871_1802)"/>
<path fill-rule="evenodd" clip-rule="evenodd" d="M38.415 14.0913C38.9887 13.9662 39.2755 13.4522 39.2755 12.5495C39.2755 10.8244 38.6842 9.33612 37.5017 8.08475C36.3191 6.83338 34.8806 6.20769 33.1862 6.20769C31.1742 6.20769 29.5592 6.88701 28.3413 8.24564C27.1588 9.55958 26.5675 11.2445 26.5675 13.3003C26.5675 15.4097 27.2294 17.0946 28.5531 18.3549C29.8416 19.5974 31.536 20.2186 33.6363 20.2186C35.9043 20.2186 37.5767 19.6331 38.6533 18.4622C38.7857 18.3192 38.8519 18.2164 38.8519 18.1538C38.8519 17.9304 38.6312 17.4075 38.19 16.5851C37.7576 15.7628 37.4487 15.3069 37.2634 15.2176L36.2573 15.8611C35.4631 16.2902 34.6733 16.5047 33.8878 16.5047C33.2348 16.5047 32.6523 16.3795 32.1405 16.1293C31.5139 15.8254 31.1389 15.3829 31.0153 14.8019C33.0803 14.641 34.6335 14.5025 35.6749 14.3863C37.4046 14.2075 38.318 14.1092 38.415 14.0913ZM34.0599 10.2702C34.4482 10.6903 34.6424 11.1774 34.6424 11.7316C34.6424 11.8299 34.4968 11.9014 34.2055 11.9461C32.8288 12.1517 31.814 12.2545 31.1609 12.2545C30.9138 12.2545 30.7903 12.1338 30.7903 11.8925C30.7903 11.3026 30.958 10.7886 31.2933 10.3506C31.6551 9.87689 32.114 9.64002 32.67 9.64002C33.2083 9.64002 33.6716 9.85008 34.0599 10.2702Z" fill="url(#paint2_linear_871_1802)"/>
<path d="M45.6439 11.0478C45.6439 13.488 45.6527 15.3606 45.6703 16.6656C45.6703 16.8712 45.6836 17.2242 45.71 17.7248C45.7365 18.1806 45.7498 18.5337 45.7498 18.784C45.7498 18.9717 45.6394 19.0834 45.4188 19.1192C45.0217 19.1907 44.3069 19.2264 43.2744 19.2264C42.2154 19.2264 41.5403 19.1907 41.249 19.1192C41.0549 19.0745 40.9446 18.9538 40.9181 18.7572V18.1806C40.9181 17.3851 40.9269 16.1963 40.9446 14.6142C40.9622 13.0232 40.971 11.8344 40.971 11.0478C40.971 7.2937 40.9755 5.58201 40.9843 5.91273C40.9578 3.93735 40.8475 2.23459 40.6533 0.804453C40.6357 0.706131 40.6269 0.630155 40.6269 0.576524C40.6269 0.37988 40.7416 0.281558 40.971 0.281558H45.6968C45.9174 0.281558 46.0189 0.375411 46.0013 0.563117L45.988 0.804453C45.7586 4.66583 45.6439 8.08028 45.6439 11.0478Z" fill="url(#paint3_linear_871_1802)"/>
<path d="M50.6332 6.0468C52.3629 6.0468 53.2277 5.26916 53.2277 3.71389C53.2277 3.02564 52.9586 2.45805 52.4202 2.01113C51.9172 1.59103 51.3215 1.38098 50.6332 1.38098C49.9272 1.38098 49.3227 1.58656 48.8197 1.99772C48.2725 2.44464 47.9989 3.0167 47.9989 3.71389C47.9989 4.44683 48.2637 5.02783 48.7932 5.45687C49.2786 5.85016 49.8919 6.0468 50.6332 6.0468Z" fill="url(#paint4_linear_871_1802)"/>
<path d="M52.9233 16.5985C52.8968 15.3025 52.8836 14.3282 52.8836 13.6757C52.8836 11.3785 52.9806 9.35847 53.1748 7.61548C53.1924 7.48141 53.2013 7.39649 53.2013 7.36074C53.2013 7.18197 53.0954 7.09259 52.8836 7.09259C52.6276 7.09259 52.2437 7.11494 51.7319 7.15963C51.2201 7.20432 50.8362 7.22667 50.5802 7.22667C50.3243 7.22667 49.9404 7.19985 49.4286 7.14622C48.9256 7.09259 48.5505 7.06577 48.3034 7.06577C48.0651 7.06577 47.946 7.15516 47.946 7.33393C47.946 7.37862 47.9548 7.47247 47.9725 7.61548C48.1666 9.11713 48.2637 11.1372 48.2637 13.6757C48.2637 14.3014 48.2505 15.2354 48.224 16.4779C48.1975 17.7114 48.1843 18.6365 48.1843 19.2532C48.1843 19.4856 48.1931 19.6197 48.2107 19.6555C48.2549 19.7359 48.374 19.794 48.5681 19.8298C48.8682 19.8834 49.5477 19.9102 50.6067 19.9102C51.6569 19.9102 52.332 19.8834 52.632 19.8298C52.8527 19.794 52.963 19.6823 52.963 19.4946C52.963 18.851 52.9497 17.8857 52.9233 16.5985Z" fill="url(#paint5_linear_871_1802)"/>
<path fill-rule="evenodd" clip-rule="evenodd" d="M103 12.5783C103 14.4911 102.444 16.0776 101.332 17.3379C100.185 18.6429 98.6802 19.2954 96.8181 19.2954C96.1386 19.2954 95.4105 19.1256 94.6339 18.786C93.8573 18.4463 93.5043 18.2765 93.5749 18.2765C93.4602 18.2765 93.4029 18.4105 93.4029 18.6787C93.4029 19.1346 93.4249 19.8183 93.469 20.73C93.5132 21.6507 93.5352 22.339 93.5352 22.7948C93.5352 23.0808 93.3896 23.2239 93.0984 23.2239L90.398 23.2373C89.789 23.2373 89.3963 23.2149 89.2198 23.1702C88.9551 23.1077 88.8227 22.9423 88.8227 22.6741L88.8492 12.3503C88.8492 10.2677 88.6947 8.51131 88.3859 7.08117C88.3682 6.99179 88.3594 6.91581 88.3594 6.85324C88.3594 6.71917 88.4123 6.62978 88.5182 6.58509C88.8624 6.45101 89.5199 6.308 90.4906 6.15605C91.4349 6.0041 92.1188 5.92812 92.5424 5.92812C92.8866 5.92812 93.0807 6.16052 93.1249 6.62531C93.1759 7.06495 93.2352 7.29259 93.3027 7.30823C93.2485 7.29209 93.626 7.05104 94.4354 6.58509C95.2826 6.09348 96.0503 5.84768 96.7387 5.84768C98.6537 5.84768 100.185 6.48677 101.332 7.76495C102.444 8.99845 103 10.6029 103 12.5783ZM100.367 14.1195C100.475 13.6486 100.049 13.1419 99.4139 12.9874C98.7794 12.8328 98.177 13.0898 98.069 13.5606C98.014 13.7996 98.0966 14.0474 98.2739 14.254C98.4464 14.4553 98.7091 14.6172 99.0219 14.6933C99.6559 14.8473 100.259 14.5909 100.367 14.1195ZM100.226 11.5062C100.304 11.3384 100.326 11.1594 100.277 10.9895C100.141 10.5259 99.524 10.306 98.9002 10.4982C98.2763 10.6903 97.879 11.2217 98.0148 11.6853C98.1501 12.1489 98.7664 12.3688 99.3907 12.1766C99.7865 12.055 100.091 11.7967 100.226 11.5062ZM98.2575 9.14157C98.0383 8.77566 97.4624 8.73342 96.9715 9.04489C96.4796 9.35584 96.2598 9.90463 96.4789 10.2695C96.6979 10.6343 97.2734 10.6776 97.7648 10.3651C98.2567 10.0541 98.4765 9.50641 98.2575 9.14157ZM93.3403 13.0803L93.3404 13.0825C93.3583 14.2863 93.373 15.2677 94.7861 15.2254C96.3573 15.1784 97.5833 13.5351 97.5571 12.6369C97.5314 11.7392 96.2113 10.1721 94.6401 10.219C93.2286 10.2613 93.265 11.0909 93.3163 12.2598C93.3221 12.3928 93.3281 12.5301 93.3323 12.6711C93.3363 12.8095 93.3383 12.9463 93.3403 13.0803ZM96.6187 15.0652C96.4212 15.443 96.6726 15.9766 97.1818 16.2577C97.6899 16.5392 98.2625 16.4632 98.4599 16.0848C98.6578 15.707 98.406 15.1734 97.8973 14.8923C97.3886 14.6102 96.8161 14.6874 96.6187 15.0652Z" fill="url(#paint6_linear_871_1802)"/>
<path fill-rule="evenodd" clip-rule="evenodd" d="M85.7688 18.1007C86.8807 16.8404 87.4367 15.2538 87.4367 13.341C87.4367 11.3656 86.8807 9.76119 85.7688 8.52769C84.6215 7.24951 83.0904 6.61042 81.1754 6.61042C80.487 6.61042 79.7193 6.85622 78.8721 7.34783C78.0627 7.81378 77.6852 8.05483 77.7394 8.07097C77.6719 8.05533 77.6126 7.82769 77.5616 7.38805C77.5174 6.92326 77.3233 6.69086 76.9791 6.69086C76.5555 6.69086 75.8716 6.76684 74.9273 6.91879C73.9566 7.07074 73.2991 7.21375 72.9549 7.34783C72.849 7.39252 72.7961 7.48191 72.7961 7.61598C72.7961 7.67855 72.8049 7.75453 72.8226 7.84391C73.1314 9.27405 73.2859 11.0304 73.2859 13.1131L73.2594 23.4369C73.2594 23.705 73.3918 23.8704 73.6565 23.933C73.833 23.9777 74.2257 24 74.8347 24L77.5351 23.9866C77.8263 23.9866 77.9719 23.8436 77.9719 23.5576C77.9719 23.1017 77.9499 22.4134 77.9057 21.4928C77.8616 20.5811 77.8396 19.8973 77.8396 19.4414C77.8396 19.1733 77.8969 19.0392 78.0116 19.0392C77.941 19.0392 78.294 19.209 79.0706 19.5487C79.8472 19.8884 80.5753 20.0582 81.2548 20.0582C83.1169 20.0582 84.6215 19.4057 85.7688 18.1007ZM83.8506 13.7501C84.4856 13.9046 84.9121 14.4114 84.804 14.8822C84.6955 15.3536 84.0926 15.6101 83.4586 15.456C83.1458 15.38 82.8831 15.2181 82.7106 15.0167C82.5333 14.8101 82.4507 14.5623 82.5057 14.3233C82.6137 13.8525 83.2161 13.5955 83.8506 13.7501ZM84.7133 11.7522C84.7626 11.9221 84.741 12.1011 84.6628 12.2689C84.5273 12.5595 84.2232 12.8178 83.8274 12.9394C83.2031 13.1316 82.5868 12.9116 82.4515 12.448C82.3157 11.9845 82.713 11.4531 83.3369 11.2609C83.9607 11.0687 84.5775 11.2887 84.7133 11.7522ZM81.4082 9.80763C81.899 9.49616 82.475 9.5384 82.6942 9.90431C82.9132 10.2691 82.6934 10.8169 82.2015 11.1278C81.7101 11.4404 81.1346 11.397 80.9156 11.0322C80.6965 10.6674 80.9163 10.1186 81.4082 9.80763ZM77.7771 13.8453L77.777 13.843C77.775 13.709 77.773 13.5723 77.769 13.4338C77.7648 13.2928 77.7588 13.1555 77.753 13.0226C77.7017 11.8536 77.6653 11.024 79.0768 10.9818C80.648 10.9348 81.9681 12.5019 81.9938 13.3996C82.02 14.2979 80.794 15.9412 79.2228 15.9882C77.8097 16.0304 77.795 15.049 77.7771 13.8453ZM81.6185 17.0204C81.1093 16.7394 80.8579 16.2058 81.0554 15.8279C81.2528 15.4501 81.8253 15.373 82.334 15.6551C82.8427 15.9361 83.0945 16.4697 82.8966 16.8476C82.6992 17.2259 82.1266 17.302 81.6185 17.0204Z" fill="url(#paint7_linear_871_1802)"/>
<path fill-rule="evenodd" clip-rule="evenodd" d="M71.3828 19.4306C71.5533 19.3681 71.6386 19.2563 71.6386 19.0954C71.6386 18.8541 70.8269 15.967 69.2037 10.4342C67.5873 4.93707 66.612 1.71926 66.2778 0.780734C66.1686 0.485768 65.1763 0.378508 65.0467 0.378508C65.7424 0.338285 64.6 0.396384 64.2385 0.432138C63.8838 0.458953 63.6144 0.47236 63.4303 0.47236C63.2393 0.47236 62.9494 0.450014 62.5607 0.405323C62.1787 0.360631 61.2307 0.271234 61.0465 0.271234C60.9374 0.271234 60.8419 0.441063 60.7601 0.78072C60.6169 1.37065 59.7097 4.62868 58.0388 10.5548C56.4974 16.034 55.7267 18.8898 55.7267 19.1222C55.7267 19.3815 56.9134 19.5781 57.9569 19.5781C59.2801 19.5781 60.0576 19.5424 60.2895 19.4708C60.4736 19.4083 60.6305 19.0061 60.7601 18.2642C60.9033 17.4508 61.0329 16.9726 61.1489 16.8296C61.2239 16.7491 61.8411 16.7089 63.0006 16.7089C64.7193 16.7089 65.6332 16.7402 65.7424 16.8027C65.872 16.8921 66.0527 17.5804 66.2846 18.8675C66.346 19.2072 66.4926 19.4083 66.7245 19.4708C67.0041 19.5424 67.6316 19.5781 68.6069 19.5781C69.6709 19.5781 71.1782 19.5021 71.3828 19.4306ZM62.7857 9.48223C63.1268 8.16829 63.3689 7.31468 63.5121 6.92139C63.6553 7.27892 63.8804 8.10125 64.1873 9.38838C64.5011 10.7202 64.6579 11.5336 64.6579 11.8285C64.6579 11.909 64.6511 11.9716 64.6375 12.0163C64.5897 12.1593 64.3408 12.2308 63.8906 12.2308C63.4064 12.2308 63.0586 12.2218 62.8471 12.204C62.4379 12.1861 62.2333 12.0967 62.2333 11.9358C62.2333 11.6945 62.4174 10.8766 62.7857 9.48223Z" fill="url(#paint8_linear_871_1802)"/>
</g>
<defs>
<linearGradient id="paint0_linear_871_1802" x1="0" y1="11.9496" x2="102.919" y2="11.9496" gradientUnits="userSpaceOnUse">
<stop stop-color="#0803FB"/>
<stop offset="1" stop-color="#C148B8"/>
</linearGradient>
<linearGradient id="paint1_linear_871_1802" x1="0" y1="11.9496" x2="102.919" y2="11.9496" gradientUnits="userSpaceOnUse">
<stop stop-color="#0803FB"/>
<stop offset="1" stop-color="#C148B8"/>
</linearGradient>
<linearGradient id="paint2_linear_871_1802" x1="0" y1="11.9496" x2="102.919" y2="11.9496" gradientUnits="userSpaceOnUse">
<stop stop-color="#0803FB"/>
<stop offset="1" stop-color="#C148B8"/>
</linearGradient>
<linearGradient id="paint3_linear_871_1802" x1="0" y1="11.9496" x2="102.919" y2="11.9496" gradientUnits="userSpaceOnUse">
<stop stop-color="#0803FB"/>
<stop offset="1" stop-color="#C148B8"/>
</linearGradient>
<linearGradient id="paint4_linear_871_1802" x1="0" y1="11.9496" x2="102.919" y2="11.9496" gradientUnits="userSpaceOnUse">
<stop stop-color="#0803FB"/>
<stop offset="1" stop-color="#C148B8"/>
</linearGradient>
<linearGradient id="paint5_linear_871_1802" x1="0" y1="11.9496" x2="102.919" y2="11.9496" gradientUnits="userSpaceOnUse">
<stop stop-color="#0803FB"/>
<stop offset="1" stop-color="#C148B8"/>
</linearGradient>
<linearGradient id="paint6_linear_871_1802" x1="0" y1="11.9496" x2="102.919" y2="11.9496" gradientUnits="userSpaceOnUse">
<stop stop-color="#0803FB"/>
<stop offset="1" stop-color="#C148B8"/>
</linearGradient>
<linearGradient id="paint7_linear_871_1802" x1="0" y1="11.9496" x2="102.919" y2="11.9496" gradientUnits="userSpaceOnUse">
<stop stop-color="#0803FB"/>
<stop offset="1" stop-color="#C148B8"/>
</linearGradient>
<linearGradient id="paint8_linear_871_1802" x1="0" y1="11.9496" x2="102.919" y2="11.9496" gradientUnits="userSpaceOnUse">
<stop stop-color="#0803FB"/>
<stop offset="1" stop-color="#C148B8"/>
</linearGradient>
</defs>
</svg>
