<svg width="48" height="48" viewBox="0 0 48 48" fill="none" xmlns="http://www.w3.org/2000/svg">
<g id="Marketplace">
<path id="Frame 1119 (Traced)" fill-rule="evenodd" clip-rule="evenodd" d="M6.05982 3.38091C5.75724 3.59032 5.37127 3.95226 5.20251 4.18504C4.71768 4.85289 0.874819 18.7184 1.00314 19.3366C1.1769 20.1743 1.54539 20.7578 2.15339 21.1585L2.72859 21.5374L2.73159 32.7953C2.73358 39.9824 2.7965 44.28 2.90585 44.6804C3.00005 45.0252 3.27184 45.4632 3.50985 45.6538C3.94042 45.9981 4.04611 46 23.9926 46H44.0424L44.6083 45.4244L45.1741 44.8488L45.1806 33.1931L45.187 21.5374L45.7152 21.1988C46.46 20.7214 47.0059 19.8296 47 19.0999C46.9928 18.2481 43.1127 4.57424 42.73 4.05299C42.5579 3.81869 42.1586 3.48587 41.8426 3.31336C41.294 3.01405 40.4868 3 23.939 3H6.61006L6.05982 3.38091ZM14.7162 6.26444C14.7162 6.57002 14.529 9.06249 14.3001 11.8031C14.0713 14.5438 13.884 16.8445 13.884 16.9157C13.884 17.2147 10.4303 18.7361 9.31183 18.9296C8.28009 19.1082 3.98952 19.063 3.80128 18.8717C3.76616 18.836 4.56006 15.8788 5.56517 12.3002C6.57045 8.72154 7.39298 5.77435 7.39298 5.75115C7.39298 5.72779 9.04071 5.70866 11.0546 5.70866H14.7162V6.26444ZM30.8967 11.2953C31.1465 14.3214 31.3193 16.8883 31.2808 16.9997C31.1725 17.3127 28.5999 18.5132 27.1157 18.9432C26.0803 19.2432 25.3771 19.3271 23.9534 19.3205C21.7428 19.3104 20.5714 19.0234 18.3362 17.945L16.7134 17.1621L16.7156 16.4717C16.7169 16.0921 16.9037 13.5342 17.1309 10.7874C17.3581 8.04065 17.5443 5.77333 17.5448 5.74895C17.5453 5.72457 20.4475 5.72457 23.9941 5.74895L30.4425 5.79331L30.8967 11.2953ZM42.4051 12.2717C43.4059 15.835 44.1795 18.7966 44.1239 18.8529C44.0683 18.9095 43.0274 18.9919 41.8108 19.0361C39.0325 19.137 37.6748 18.868 35.5979 17.8054L34.0923 17.0351L33.7153 12.2607C33.5081 9.6347 33.2949 7.08483 33.2413 6.59406L33.1441 5.70206L36.8648 5.7476L40.5853 5.79331L42.4051 12.2717ZM17.0463 20.3886C19.703 21.7265 21.0872 22.048 24.1199 22.0322C26.341 22.0207 26.7817 21.9682 28.1144 21.5569C28.9382 21.3024 30.3328 20.7243 31.2133 20.2721L32.8142 19.4499L34.4112 20.2874C36.5629 21.4158 38.0723 21.7913 40.4573 21.7913H42.3447V32.5413V43.2913H36.9425H31.5403L31.4917 36.3927L31.4431 29.4941L31.002 28.6443C30.4573 27.595 29.1118 26.2909 28.0673 25.8C27.3359 25.4563 27.0315 25.4311 23.6206 25.4311C20.2096 25.4311 19.9052 25.4563 19.1739 25.8C18.1293 26.2909 16.7838 27.595 16.2391 28.6443L15.798 29.4941L15.7494 36.3927L15.7008 43.2913H10.6315H5.56218V32.5413V21.7913L7.43459 21.7885C9.95528 21.7844 11.248 21.4768 13.3707 20.3754C14.3396 19.8728 15.1697 19.472 15.2155 19.4851C15.2613 19.4981 16.0851 19.9046 17.0463 20.3886ZM27.3243 28.5539C27.8293 28.8467 28.1513 29.2077 28.4477 29.8127L28.8633 30.661V36.9761V43.2913H23.6206H18.3778L18.3788 37.0699C18.3793 33.3863 18.4485 30.5962 18.5484 30.2302C18.7446 29.5117 19.813 28.4519 20.4957 28.2986C20.7497 28.2415 21.0325 28.1655 21.124 28.1296C21.2156 28.0937 22.4888 28.0822 23.9534 28.1039C26.4287 28.1404 26.6664 28.1721 27.3243 28.5539Z" fill="#E2A898"/>
</g>
</svg>
