<svg width="97" height="116" viewBox="0 0 97 116" fill="none" xmlns="http://www.w3.org/2000/svg">
<g id="QA General">
<path id="Union" fill-rule="evenodd" clip-rule="evenodd" d="M74.6141 46.5725C75.0404 45.8622 74.81 44.9408 74.0996 44.5145C73.3893 44.0883 72.4679 44.3187 72.0417 45.029L69.2184 49.7344C69.0545 49.5498 68.8847 49.3696 68.7092 49.1941C66.3603 46.8452 63.1745 45.5256 59.8527 45.5256H58.9301C58.5426 44.7584 58.0657 44.0345 57.5061 43.3699C57.7475 43.2076 57.9444 42.9734 58.0606 42.6829L60.0206 37.7829C60.3283 37.0137 59.9542 36.1407 59.185 35.8331C58.4158 35.5254 57.5429 35.8995 57.2352 36.6687L55.3435 41.3978C53.4886 40.1076 51.2709 39.4018 48.9804 39.4006H45.4279V33.5508C45.4279 32.7224 44.7563 32.0508 43.9279 32.0508C43.0995 32.0508 42.4279 32.7224 42.4279 33.5508V39.4006H41.4777C39.0285 39.4006 36.6034 39.883 34.3407 40.8203C33.7484 41.0656 33.1704 41.3408 32.6086 41.6445C32.6 41.6191 32.5907 41.5939 32.5806 41.5687L30.6206 36.6687C30.3129 35.8995 29.44 35.5254 28.6708 35.8331C27.9016 36.1407 27.5275 37.0137 27.8352 37.7829L29.7952 42.6829C29.8801 42.8952 30.0081 43.0773 30.165 43.2234C29.5057 43.7265 28.8792 44.2741 28.2902 44.8631C26.5583 46.5949 25.1846 48.6509 24.2473 50.9136C23.3101 53.1763 22.8277 55.6015 22.8277 58.0506C22.8277 60.4998 23.3101 62.925 24.2473 65.1877C25.1846 67.4504 26.5583 69.5064 28.2902 71.2382C28.8792 71.8272 29.5058 72.3749 30.1652 72.878C30.0082 73.0241 29.8801 73.2063 29.7952 73.4187L27.8352 78.3187C27.5275 79.0879 27.9016 79.9608 28.6708 80.2685C29.44 80.5762 30.3129 80.202 30.6206 79.4329L32.5806 74.5329C32.5907 74.5076 32.6001 74.4823 32.6087 74.4568C33.1705 74.7605 33.7485 75.0357 34.3407 75.281C36.6034 76.2182 39.0285 76.7006 41.4777 76.7006H42.4279V82.5508C42.4279 83.3792 43.0995 84.0508 43.9279 84.0508C44.7563 84.0508 45.4279 83.3792 45.4279 82.5508V76.7006H48.9796C51.2702 76.6995 53.4885 75.9937 55.3434 74.7035L57.2352 79.4329C57.5429 80.202 58.4158 80.5762 59.185 80.2685C59.9542 79.9608 60.3283 79.0879 60.0206 78.3187L58.0606 73.4187C57.9444 73.1281 57.7475 72.8939 57.5059 72.7315C58.0656 72.0669 58.5426 71.3429 58.9301 70.5756H59.8527C63.1745 70.5756 66.3603 69.256 68.7092 66.9071C68.8847 66.7317 69.0544 66.5515 69.2183 66.367L72.0417 71.0725C72.4679 71.7829 73.3893 72.0132 74.0996 71.587C74.81 71.1608 75.0404 70.2394 74.6141 69.529L71.0702 63.6224C71.9222 61.9069 72.3777 60.0022 72.3777 58.0506C72.3777 56.0991 71.9223 54.1945 71.0702 52.479L74.6141 46.5725ZM43.9067 42.4006H41.4777C39.4225 42.4006 37.3875 42.8054 35.4887 43.5919C33.59 44.3784 31.8647 45.5312 30.4115 46.9844C28.9582 48.4377 27.8055 50.1629 27.019 52.0616C26.4245 53.4969 26.0481 55.01 25.8997 56.5508H41.4779C42.3063 56.5508 42.9779 57.2224 42.9779 58.0508C42.9779 58.8792 42.3063 59.5508 41.4779 59.5508H25.8998C26.0481 61.0915 26.4245 62.6045 27.019 64.0396C27.8055 65.9384 28.9582 67.6636 30.4115 69.1169C31.8647 70.5701 33.59 71.7229 35.4887 72.5094C37.3875 73.2958 39.4225 73.7006 41.4777 73.7006H48.9788C51.1394 73.6995 53.2111 72.8409 54.739 71.3134C56.2668 69.786 57.1259 67.7147 57.1277 65.5544V50.5447C57.1253 48.3848 56.266 46.314 54.7383 44.7871C53.2106 43.2602 51.1395 42.4019 48.9796 42.4006H43.9491C43.942 42.4007 43.935 42.4008 43.9279 42.4008C43.9208 42.4008 43.9137 42.4007 43.9067 42.4006ZM66.5879 64.7858C64.8226 66.5511 62.4359 67.5519 59.9419 67.5752C60.0642 66.9138 60.1272 66.2382 60.1277 65.5561L60.1277 50.5438L60.1277 50.5423C60.127 49.8612 60.064 49.1866 59.9419 48.5261C62.4359 48.5494 64.8226 49.5502 66.5879 51.3154C68.3742 53.1017 69.3777 55.5244 69.3777 58.0506C69.3777 60.5768 68.3742 62.9995 66.5879 64.7858Z" fill="#322E2B"/>
</g>
</svg>
