<svg width="48" height="48" viewBox="0 0 48 48" fill="none" xmlns="http://www.w3.org/2000/svg">
<g id="SheliCoin">
<g id="Union">
<path d="M16.9744 2.02851C21.6975 1.79505 26.3805 2.99963 30.4052 5.48333C31.0663 5.89115 31.2713 6.75755 30.8633 7.41845C30.4552 8.07935 29.5891 8.28461 28.9279 7.87679C25.3789 5.68614 21.2473 4.62674 17.0823 4.83911L17.0107 4.84107C13.1203 4.84107 9.67236 5.54684 7.25045 6.62586C6.03705 7.16611 5.14343 7.77256 4.57155 8.37412C4.42343 8.52959 4.30081 8.67992 4.20076 8.8251C3.91825 9.23561 3.81329 9.6042 3.81329 9.9252C3.81329 10.3875 4.034 10.9554 4.70299 11.6082C4.80108 11.7036 4.90702 11.799 5.02081 11.8944C5.15127 12.0043 5.29253 12.1136 5.44359 12.2223C6.06452 12.6669 6.85514 13.0985 7.81154 13.4933C8.52958 13.7898 8.87094 14.6121 8.5747 15.3299C8.27748 16.0479 7.45547 16.3893 6.73743 16.0928C6.18419 15.8642 5.65547 15.616 5.15912 15.3478C4.67847 15.0885 4.22822 14.8107 3.81329 14.514V19.6611C3.81329 19.936 3.89177 20.2482 4.0958 20.5937C4.23509 20.8292 4.43226 21.0798 4.70299 21.3444C5.37689 22.0014 6.41961 22.6544 7.81154 23.2292C8.52958 23.5257 8.87094 24.348 8.5747 25.066C8.27748 25.7838 7.45547 26.1254 6.73743 25.8287C5.64958 25.3794 4.65689 24.8534 3.81329 24.2499V29.3968C3.81329 29.5901 3.85155 29.8019 3.94572 30.0307C4.07618 30.3488 4.31356 30.7 4.70299 31.0798C5.37689 31.7371 6.41961 32.3901 7.81154 32.9649C8.52958 33.2614 8.87094 34.0837 8.5747 34.8015C8.27748 35.5193 7.45547 35.8609 6.73743 35.5644C5.14343 34.9059 3.75248 34.0824 2.73918 33.0927C1.72 32.0985 1 30.8493 1 29.3968V9.9252C1 8.57471 1.62289 7.39295 2.53319 6.43605C3.43662 5.48578 4.67847 4.6927 6.10571 4.05682C8.95726 2.78652 12.7976 2.03268 16.9744 2.02851Z" fill="#5BC7B4"/>
<path fill-rule="evenodd" clip-rule="evenodd" d="M13.9825 19.6315V29.3147L13.9816 29.3676L13.9825 29.4606V39.1033C13.9825 40.4516 14.6015 41.6329 15.5098 42.5907C16.4103 43.5418 17.6492 44.3351 19.0755 44.9714C21.932 46.2457 25.787 47 29.9932 47C34.1994 47 38.0535 46.2457 40.9099 44.9714C42.3362 44.3351 43.5751 43.5418 44.4766 42.5907C45.3839 41.6329 46.0029 40.4516 46.0029 39.1033V19.6315C46.0029 18.2775 45.38 17.0936 44.4677 16.1349C43.5623 15.1837 42.3185 14.3914 40.8903 13.7565C38.0289 12.4849 34.1749 11.7348 29.9932 11.7348C25.8105 11.7348 21.9575 12.4849 19.0961 13.7565C17.6669 14.3914 16.4231 15.1837 15.5187 16.1349C14.6064 17.0936 13.9825 18.2775 13.9825 19.6315ZM16.7958 39.1033V33.9588L16.9077 34.0371C17.5561 34.4846 18.2868 34.8841 19.0745 35.2358C21.93 36.51 25.785 37.2643 29.9912 37.2643C34.1974 37.2643 38.0525 36.51 40.9089 35.2358C41.3611 35.0339 41.7947 34.8162 42.2047 34.5827C42.551 34.3853 42.8806 34.1766 43.1906 33.9566V39.1033C43.1906 39.5401 42.9973 40.0624 42.4352 40.6561C42.2528 40.8481 42.038 41.0409 41.7898 41.2317C41.4239 41.5134 40.9874 41.791 40.4793 42.0574C40.2547 42.1751 40.0163 42.2906 39.7642 42.4031C37.3462 43.4817 33.8992 44.1877 29.9932 44.1877C26.0862 44.1877 22.6392 43.4817 20.2212 42.4031C19.0108 41.8629 18.1201 41.2569 17.5511 40.6561C17.2824 40.3731 17.0989 40.1063 16.9793 39.8574C16.8488 39.584 16.7958 39.3319 16.7958 39.1033ZM43.1906 24.2205V29.2928L43.1886 29.3676C43.1886 29.8041 42.9963 30.3267 42.4333 30.9204C42.1508 31.2194 41.7878 31.5195 41.3454 31.8121C40.8981 32.1076 40.3704 32.3957 39.7622 32.6672C37.3452 33.7457 33.8983 34.4518 29.9912 34.4518C26.0842 34.4518 22.6372 33.7457 20.2202 32.6672C19.6199 32.3994 19.0981 32.1152 18.6557 31.8236C18.2054 31.5274 17.8366 31.2233 17.5492 30.9204C17.0195 30.3611 16.8174 29.8645 16.7958 29.4439V24.221C17.4776 24.7043 18.2545 25.1327 19.0961 25.5065C21.9575 26.778 25.8105 27.5281 29.9932 27.5281C34.1749 27.5281 38.0289 26.778 40.8903 25.5065C41.7319 25.1325 42.5088 24.7041 43.1906 24.2205ZM42.9679 18.7991C42.8482 18.5711 42.6736 18.329 42.4303 18.074C41.8575 17.472 40.9619 16.866 39.7475 16.3265C37.3237 15.2492 33.8757 14.5473 29.9932 14.5473C26.1097 14.5473 22.6627 15.2492 20.2379 16.3265C19.0235 16.866 18.1289 17.472 17.5561 18.074C16.9901 18.6687 16.7958 19.1925 16.7958 19.6315C16.7958 20.0704 16.9901 20.5942 17.5561 21.1889C18.1289 21.791 19.0235 22.3969 20.2379 22.9364C22.6627 24.0137 26.1097 24.7158 29.9932 24.7158C33.8757 24.7158 37.3237 24.0137 39.7475 22.9364C40.9619 22.3969 41.8575 21.791 42.4303 21.1889C42.9963 20.5942 43.1906 20.0704 43.1906 19.6315C43.1906 19.3808 43.1268 19.1025 42.9679 18.7991Z" fill="#5BC7B4"/>
</g>
</g>
</svg>
