<svg width="97" height="116" viewBox="0 0 97 116" fill="none" xmlns="http://www.w3.org/2000/svg">
<g id="SMM">
<path id="Union" fill-rule="evenodd" clip-rule="evenodd" d="M70.7368 32.0508C70.1965 32.0493 69.6644 32.188 69.1938 32.4551L53.2657 41.4751H34.9943C31.772 41.4751 28.6789 42.7432 26.3961 45.0044C24.1129 47.2666 22.8276 50.3374 22.8276 53.5425C22.8276 56.7476 24.1129 59.8184 26.3961 62.0806C28.3676 64.0337 30.9435 65.2456 33.685 65.5401L35.5283 78.3262L35.5294 78.3335L35.5306 78.3413C35.8022 80.0982 36.7623 81.6738 38.1969 82.729C39.6311 83.7832 41.4249 84.2329 43.189 83.9834C44.9532 83.7339 46.5504 82.8037 47.6314 81.3911C48.7127 79.9776 49.1888 78.1958 48.9531 76.4336L48.952 76.4258L48.9509 76.4185L47.3927 65.6099H53.2658L69.1932 74.627C69.6636 74.8936 70.1954 75.0327 70.7355 75.0313C71.2757 75.0303 71.8068 74.8882 72.2758 74.6192C72.745 74.3501 73.1363 73.9624 73.4093 73.4942C73.6823 73.0259 73.827 72.4932 73.8276 71.9483V35.1372C73.8278 34.5933 73.6838 34.0606 73.4112 33.5913C73.1386 33.1221 72.7474 32.7339 72.2781 32.4644C71.8088 32.1948 71.2774 32.0523 70.7368 32.0508ZM34.9943 44.4751H52.1609V62.6099H34.9943C32.5587 62.6099 30.2256 61.6514 28.5075 59.9492C26.79 58.2476 25.8276 55.9429 25.8276 53.5425C25.8276 51.1421 26.79 48.8374 28.5075 47.1358C30.2256 45.4336 32.5587 44.4751 34.9943 44.4751ZM70.672 72.0166L55.1609 63.2354V43.8491L70.6721 35.0654C70.6821 35.0596 70.6926 35.0557 70.7037 35.0532C70.7115 35.0518 70.7197 35.0508 70.728 35.0508C70.7482 35.0508 70.7672 35.0562 70.7831 35.0654C70.7988 35.0742 70.8102 35.0864 70.8173 35.0986C70.8245 35.1109 70.8276 35.1235 70.8276 35.1367V71.9463C70.8275 71.959 70.8243 71.9717 70.8173 71.9839C70.8101 71.9961 70.7988 72.0078 70.783 72.0171C70.7759 72.021 70.7681 72.0244 70.7599 72.0269C70.7498 72.0298 70.739 72.0313 70.7279 72.0313C70.7078 72.0317 70.6887 72.0264 70.672 72.0166ZM38.4964 77.8897L36.7261 65.6099H44.3617L45.9805 76.8384C46.1081 77.8062 45.8465 78.7866 45.2487 79.5679C44.6491 80.3521 43.7586 80.8731 42.7686 81.0132C41.7784 81.1533 40.774 80.8999 39.974 80.312C39.1764 79.7256 38.6475 78.8545 38.4964 77.8897Z" fill="#322E2B"/>
</g>
</svg>
