<svg width="24" height="24" viewBox="0 0 24 24" fill="none" xmlns="http://www.w3.org/2000/svg">
<g id="streamline:web">
<path id="Union" fill-rule="evenodd" clip-rule="evenodd" d="M12 1C9.08262 1 6.28473 2.15893 4.22183 4.22183C2.15893 6.28473 1 9.08262 1 12C1 14.9174 2.15893 17.7153 4.22183 19.7782C6.28473 21.8411 9.08262 23 12 23C14.9174 23 17.7153 21.8411 19.7782 19.7782C21.8411 17.7153 23 14.9174 23 12C23 9.08262 21.8411 6.28473 19.7782 4.22183C17.7153 2.15893 14.9174 1 12 1C12 1 12 1 12 1ZM10.5115 2.52503C8.5191 2.83802 6.66206 3.77403 5.21805 5.21805C3.58613 6.84996 2.60302 9.0094 2.43475 11.2956H7.38334C7.66056 8.14816 8.73998 5.12924 10.5115 2.52503ZM7.38334 12.7044H2.43475C2.60302 14.9906 3.58613 17.15 5.21805 18.782C6.66206 20.226 8.5191 21.162 10.5115 21.475C8.73998 18.8708 7.66056 15.8518 7.38334 12.7044ZM13.4885 21.475C15.4809 21.162 17.3379 20.226 18.782 18.782C20.4139 17.15 21.397 14.9906 21.5653 12.7044H16.6167C16.3395 15.8518 15.26 18.8708 13.4885 21.475ZM15.2019 12.7044C14.9109 15.754 13.8044 18.6685 12 21.1418C10.1956 18.6685 9.08909 15.754 8.79812 12.7044H15.2019ZM15.2019 11.2956H8.79812C9.08909 8.24602 10.1956 5.33149 12 2.85818C13.8044 5.33149 14.9109 8.24602 15.2019 11.2956ZM16.6167 11.2956C16.3395 8.14816 15.26 5.12924 13.4885 2.52504C15.4809 2.83803 17.3379 3.77404 18.782 5.21805C20.4139 6.84996 21.397 9.0094 21.5653 11.2956H16.6167Z" fill="#514FFB"/>
</g>
</svg>
