<svg width="24" height="24" viewBox="0 0 24 24" fill="none" xmlns="http://www.w3.org/2000/svg">
<g id="Telegram">
<path id="Frame 1122 (Traced)" fill-rule="evenodd" clip-rule="evenodd" d="M18.5244 2.30383C17.1572 2.78822 4.23995 8.19536 3.46152 8.60915C2.53469 9.10188 2.08333 9.61229 2.01581 10.2441C1.89741 11.3532 2.39659 11.7914 5.14319 12.9899C6.2727 13.4828 6.60618 13.6789 6.78115 13.9528C6.90196 14.142 7.23092 15.2089 7.51206 16.3235C8.03231 18.3857 8.26742 18.9392 8.73142 19.1951C9.37101 19.5478 9.88852 19.1441 11.1205 17.3317C11.5569 16.6896 11.9473 16.1256 11.9878 16.0784C12.0285 16.031 12.8755 16.9641 13.8702 18.1518C15.8319 20.4944 16.405 21.0007 17.094 21C17.9094 20.9992 18.3641 20.5016 18.7696 19.166C18.9454 18.587 21.555 7.21268 21.8384 5.78996C22.1811 4.06963 21.976 2.85882 21.2495 2.31273C20.6989 1.89893 19.6767 1.8956 18.5244 2.30383ZM20.5047 3.56812C20.6734 3.74622 20.6643 4.45841 20.4804 5.45388C20.2952 6.45713 17.6459 18.0538 17.4189 18.8555C17.3286 19.1739 17.2046 19.4672 17.1432 19.5072C17.0817 19.5474 16.8641 19.412 16.6594 19.2063C16.3051 18.8502 12.2593 14.1252 12.0532 13.8267C11.9819 13.7236 12.4685 13.1247 13.8176 11.6546C15.4701 9.85398 15.6803 9.58327 15.6803 9.25619C15.6803 8.81605 15.2993 8.48608 14.9101 8.58914C14.6604 8.6554 10.8638 12.7409 10.6412 13.183C10.4467 13.5695 10.498 14.044 10.7823 14.4861C10.9271 14.7114 11.0456 14.9167 11.0456 14.9424C11.0456 14.9765 9.51648 17.2492 9.30159 17.5344C9.26883 17.5779 9.07017 16.8485 8.61671 15.0206C8.07602 12.8412 7.81321 12.5473 5.54873 11.5898C4.11081 10.9817 3.33797 10.5533 3.38758 10.3917C3.4078 10.3259 3.61142 10.1621 3.8401 10.0276C4.28029 9.76882 17.3533 4.2882 18.7877 3.76112C19.7009 3.42559 20.3053 3.35766 20.5047 3.56812Z" fill="#77BCD7"/>
</g>
</svg>
