<svg width="49" height="48" viewBox="0 0 49 48" fill="none" xmlns="http://www.w3.org/2000/svg">
<g id="Telegram">
<path id="Frame 1122 (Traced)" fill-rule="evenodd" clip-rule="evenodd" d="M39.2063 3.67163C36.0618 4.74239 6.35208 16.695 4.5617 17.6097C2.42997 18.6989 1.39185 19.8272 1.23655 21.2238C0.96424 23.6755 2.11235 24.6442 8.42954 27.2935C11.0274 28.3829 11.7944 28.8164 12.1968 29.422C12.4747 29.8403 13.2313 32.1985 13.8779 34.6625C15.0745 39.221 15.6153 40.4447 16.6825 41.0101C18.1535 41.7899 19.3438 40.8976 22.1774 36.891C23.1811 35.4718 24.0789 34.2251 24.1722 34.1206C24.2657 34.0159 26.2138 36.0785 28.5016 38.704C33.0136 43.8823 34.3318 45.0015 35.9165 45C37.7919 44.9983 38.8375 43.8983 39.7703 40.946C40.1746 39.6661 46.1766 14.5228 46.8286 11.3778C47.6167 7.57498 47.145 4.89844 45.474 3.69129C44.2077 2.77658 41.8567 2.76921 39.2063 3.67163ZM43.7609 6.46637C44.1491 6.86007 44.128 8.43439 43.7052 10.6349C43.2791 12.8526 37.1857 38.4875 36.6636 40.2596C36.456 40.9635 36.1709 41.6118 36.0296 41.7002C35.8881 41.7889 35.3876 41.4896 34.9169 41.035C34.1019 40.2478 24.7965 29.8032 24.3227 29.1433C24.1586 28.9152 25.2777 27.5913 28.3807 24.3417C32.1814 20.3614 32.665 19.763 32.665 19.04C32.665 18.0671 31.7887 17.3377 30.8935 17.5655C30.3191 17.7119 21.587 26.743 21.075 27.7204C20.6276 28.5746 20.7456 29.6235 21.3994 30.6009C21.7326 31.0988 22.0051 31.5527 22.0051 31.6095C22.0051 31.6849 18.4881 36.7087 17.9939 37.3393C17.9185 37.4354 17.4616 35.823 16.4186 31.7825C15.1751 26.9647 14.5706 26.3151 9.36228 24.1984C6.05505 22.8544 4.27752 21.9072 4.39163 21.5502C4.43814 21.4047 4.90645 21.0424 5.43242 20.7453C6.44487 20.1732 36.5127 8.05814 39.8119 6.893C41.9122 6.15131 43.3023 6.00115 43.7609 6.46637Z" fill="#77BCD7"/>
</g>
</svg>
