<svg width="25" height="24" viewBox="0 0 25 24" fill="none" xmlns="http://www.w3.org/2000/svg">
<g id="Telegram">
<path id="Frame 1122 (Traced)" fill-rule="evenodd" clip-rule="evenodd" d="M19.0244 2.30383C17.6572 2.78822 4.73995 8.19536 3.96152 8.60915C3.03469 9.10188 2.58333 9.61229 2.51581 10.2441C2.39741 11.3532 2.89659 11.7914 5.64319 12.9899C6.7727 13.4828 7.10618 13.6789 7.28115 13.9528C7.40196 14.142 7.73092 15.2089 8.01206 16.3235C8.53231 18.3857 8.76742 18.9392 9.23142 19.1951C9.87101 19.5478 10.3885 19.1441 11.6205 17.3317C12.0569 16.6896 12.4473 16.1256 12.4878 16.0784C12.5285 16.031 13.3755 16.9641 14.3702 18.1518C16.3319 20.4944 16.905 21.0007 17.594 21C18.4094 20.9992 18.8641 20.5016 19.2696 19.166C19.4454 18.587 22.055 7.21268 22.3384 5.78996C22.6811 4.06963 22.476 2.85882 21.7495 2.31273C21.1989 1.89893 20.1767 1.8956 19.0244 2.30383ZM21.0047 3.56812C21.1734 3.74622 21.1643 4.45841 20.9804 5.45388C20.7952 6.45713 18.1459 18.0538 17.9189 18.8555C17.8286 19.1739 17.7046 19.4672 17.6432 19.5072C17.5817 19.5474 17.3641 19.412 17.1594 19.2063C16.8051 18.8502 12.7593 14.1252 12.5532 13.8267C12.4819 13.7236 12.9685 13.1247 14.3176 11.6546C15.9701 9.85398 16.1803 9.58327 16.1803 9.25619C16.1803 8.81605 15.7993 8.48608 15.4101 8.58914C15.1604 8.6554 11.3638 12.7409 11.1412 13.183C10.9467 13.5695 10.998 14.044 11.2823 14.4861C11.4271 14.7114 11.5456 14.9167 11.5456 14.9424C11.5456 14.9765 10.0165 17.2492 9.80159 17.5344C9.76883 17.5779 9.57017 16.8485 9.11671 15.0206C8.57602 12.8412 8.31321 12.5473 6.04873 11.5898C4.61081 10.9817 3.83797 10.5533 3.88758 10.3917C3.9078 10.3259 4.11142 10.1621 4.3401 10.0276C4.78029 9.76882 17.8533 4.2882 19.2877 3.76112C20.2009 3.42559 20.8053 3.35766 21.0047 3.56812Z" fill="#77BCD7"/>
</g>
</svg>
