<svg width="114" height="26" viewBox="0 0 114 26" fill="none" xmlns="http://www.w3.org/2000/svg">
<path d="M27.7131 10.2108L27.6841 20.1301C27.6841 20.4656 27.5491 20.6525 27.279 20.6908C26.9703 20.7291 26.2662 20.7483 25.1665 20.7483C24.1055 20.7483 23.3675 20.71 22.9528 20.6333C22.6344 20.5758 22.4753 20.3697 22.4753 20.0151C22.4753 19.1909 22.4897 17.9498 22.5187 16.2918C22.5476 14.6338 22.5621 13.3926 22.5621 12.5684C22.5621 11.4471 21.9882 10.8864 20.8403 10.8864C20.4544 10.8864 20.0011 11.0398 19.4802 11.3465C18.9111 11.6819 18.6265 12.0317 18.6265 12.3959V15.9468C18.6265 16.4068 18.6361 17.1016 18.6554 18.0313C18.6747 18.9513 18.6844 19.6414 18.6844 20.1014C18.6844 20.456 18.5349 20.6525 18.2358 20.6908C17.9368 20.7291 17.0976 20.7483 15.7182 20.7483C14.9272 20.7483 14.3581 20.71 14.0109 20.6333C13.6636 20.5566 13.49 20.3889 13.49 20.1301C13.49 19.373 13.4948 18.2373 13.5044 16.7231C13.5141 15.1992 13.5189 14.0587 13.5189 13.3016C13.5189 10.1677 13.4852 7.57521 13.4176 5.52425C13.3887 4.80546 13.3646 4.08666 13.3453 3.36787C13.2971 2.53407 13.2102 1.82007 13.0848 1.22587C13.0559 1.10128 13.0414 1.01023 13.0414 0.952725C13.0414 0.808967 13.1138 0.713127 13.2585 0.665208C13.5575 0.578953 13.9964 0.526241 14.5752 0.507073C15.3468 0.478322 15.7954 0.454362 15.9208 0.435194L18.5397 0.133301C18.694 0.133301 18.7712 0.233932 18.7712 0.435194C18.7712 0.741879 18.7519 1.15878 18.7133 1.68589C18.6747 2.29926 18.6554 2.71616 18.6554 2.93659C18.5976 5.10256 18.5686 6.81329 18.5686 8.06878C18.5686 8.26046 18.6169 8.3563 18.7133 8.3563C18.7326 8.3563 18.9786 8.18858 19.4512 7.85314C20.0107 7.4602 20.5461 7.14872 21.0573 6.91871C21.8193 6.58327 22.5573 6.41555 23.2711 6.41555C24.5058 6.41555 25.5379 6.73662 26.3675 7.37874C27.2645 8.06878 27.7131 9.01279 27.7131 10.2108Z" fill="url(#paint0_linear_338_1092)"/>
<path d="M11.1122 14.7823C11.1122 16.7278 10.2875 18.3954 8.63802 19.7851C7.19111 21.0119 5.43071 21.7929 3.35681 22.1284C3.27964 22.138 3.21694 22.1428 3.16871 22.1428C2.94685 22.1428 2.4549 21.4719 1.69286 20.1301C0.930824 18.7788 0.549805 17.9546 0.549805 17.6575C0.549805 17.5521 0.62215 17.485 0.766841 17.4562C2.16552 17.14 3.09154 16.8716 3.5449 16.6512C4.54809 16.1528 5.04969 15.4148 5.04969 14.4373C5.04969 13.8143 4.72172 13.1195 4.06579 12.3528C2.92756 11.0494 2.31021 10.3258 2.21375 10.182C1.54817 9.1853 1.21538 8.08316 1.21538 6.87558C1.21538 5.12173 2.03047 3.66497 3.66066 2.50532C4.99181 1.54693 6.62682 0.923973 8.56567 0.636456C8.67178 0.626872 8.75377 0.62208 8.81165 0.62208C8.95634 0.62208 9.07209 0.737087 9.15891 0.967101C9.4097 1.66673 9.99329 2.9318 10.9097 4.76233C10.9386 4.81983 10.9531 4.86775 10.9531 4.90609C10.9531 5.06902 10.8663 5.15048 10.6926 5.15048C10.6155 5.15048 10.4852 5.1361 10.302 5.10735C10.1187 5.0786 9.97882 5.06422 9.88236 5.06422C9.18784 5.06422 8.58014 5.22236 8.05925 5.53863C7.43226 5.90282 7.11876 6.41076 7.11876 7.06247C7.11876 7.64709 7.46602 8.36588 8.16054 9.21885C9.38559 10.7523 10.027 11.5573 10.0849 11.634C10.7698 12.6882 11.1122 13.7377 11.1122 14.7823Z" fill="url(#paint1_linear_338_1092)"/>
<path fill-rule="evenodd" clip-rule="evenodd" d="M42.5391 15.2423C43.1661 15.1082 43.4796 14.5571 43.4796 13.5891C43.4796 11.7394 42.8333 10.1437 41.5407 8.80195C40.2481 7.4602 38.6758 6.78933 36.8238 6.78933C34.6245 6.78933 32.8592 7.5177 31.5281 8.97446C30.2355 10.3833 29.5892 12.1899 29.5892 14.3942C29.5892 16.656 30.3127 18.4625 31.7596 19.8139C33.1679 21.146 35.02 21.8121 37.3157 21.8121C39.7948 21.8121 41.6227 21.1844 42.7995 19.9289C42.9442 19.7755 43.0165 19.6653 43.0165 19.5982C43.0165 19.3586 42.7754 18.798 42.2931 17.9162C41.8204 17.0345 41.4828 16.5457 41.2803 16.4499L40.1806 17.14C39.3125 17.6 38.4491 17.83 37.5906 17.83C36.8768 17.83 36.2402 17.6958 35.6807 17.4275C34.9958 17.1016 34.5859 16.6272 34.4508 16.0043C36.708 15.8317 38.4057 15.6832 39.544 15.5586C41.4346 15.3669 42.433 15.2615 42.5391 15.2423ZM37.7787 11.1452C38.2032 11.5957 38.4154 12.118 38.4154 12.7122C38.4154 12.8176 38.2562 12.8943 37.9379 12.9422C36.4331 13.1626 35.3238 13.2728 34.61 13.2728C34.3399 13.2728 34.2049 13.1435 34.2049 12.8847C34.2049 12.2522 34.3881 11.7011 34.7547 11.2315C35.1502 10.7235 35.6518 10.4695 36.2595 10.4695C36.8479 10.4695 37.3543 10.6948 37.7787 11.1452Z" fill="url(#paint2_linear_338_1092)"/>
<path d="M50.4405 11.979C50.4405 14.5954 50.4501 16.6033 50.4694 18.0025C50.4694 18.2229 50.4839 18.6015 50.5128 19.1382C50.5418 19.627 50.5562 20.0055 50.5562 20.2739C50.5562 20.4752 50.4356 20.595 50.1945 20.6333C49.7604 20.71 48.9791 20.7483 47.8505 20.7483C46.693 20.7483 45.9551 20.71 45.6367 20.6333C45.4245 20.5854 45.3039 20.456 45.275 20.2451V19.627C45.275 18.774 45.2847 17.4993 45.3039 15.803C45.3232 14.0971 45.3329 12.8224 45.3329 11.979C45.3329 7.95377 45.3377 6.11845 45.3474 6.47306C45.3184 4.35501 45.1978 2.52928 44.9856 0.995853C44.9663 0.89043 44.9567 0.808967 44.9567 0.751463C44.9567 0.540617 45.0821 0.435194 45.3329 0.435194H50.4983C50.7395 0.435194 50.8504 0.535825 50.8311 0.737087L50.8167 0.995853C50.5659 5.1361 50.4405 8.79716 50.4405 11.979Z" fill="url(#paint3_linear_338_1092)"/>
<path d="M55.894 6.61682C57.7846 6.61682 58.73 5.78302 58.73 4.11542C58.73 3.37745 58.4358 2.76888 57.8473 2.28968C57.2975 1.83924 56.6464 1.61401 55.894 1.61401C55.1223 1.61401 54.4616 1.83444 53.9118 2.2753C53.3137 2.7545 53.0147 3.36787 53.0147 4.11542C53.0147 4.9013 53.3041 5.52425 53.8828 5.98428C54.4133 6.40597 55.0838 6.61682 55.894 6.61682Z" fill="url(#paint4_linear_338_1092)"/>
<path d="M58.3972 17.9306C58.3682 16.541 58.3538 15.4963 58.3538 14.7967C58.3538 12.3336 58.4599 10.1677 58.6721 8.29879C58.6914 8.15503 58.701 8.06399 58.701 8.02565C58.701 7.83397 58.5853 7.73813 58.3538 7.73813C58.074 7.73813 57.6544 7.76209 57.095 7.81001C56.5355 7.85793 56.1159 7.88189 55.8361 7.88189C55.5564 7.88189 55.1368 7.85314 54.5773 7.79564C54.0275 7.73813 53.6175 7.70938 53.3475 7.70938C53.087 7.70938 52.9568 7.80522 52.9568 7.9969C52.9568 8.04482 52.9664 8.14545 52.9857 8.29879C53.1979 9.90889 53.3041 12.0749 53.3041 14.7967C53.3041 15.4676 53.2896 16.4691 53.2606 17.8012C53.2317 19.1238 53.2172 20.1158 53.2172 20.777C53.2172 21.0262 53.2269 21.17 53.2462 21.2083C53.2944 21.2946 53.4246 21.3569 53.6368 21.3952C53.9648 21.4527 54.7076 21.4815 55.8651 21.4815C57.013 21.4815 57.7509 21.4527 58.0788 21.3952C58.32 21.3569 58.4406 21.2371 58.4406 21.0358C58.4406 20.3458 58.4261 19.3107 58.3972 17.9306Z" fill="url(#paint5_linear_338_1092)"/>
<path fill-rule="evenodd" clip-rule="evenodd" d="M113.133 13.62C113.133 15.6709 112.525 17.3721 111.31 18.7234C110.056 20.1227 108.411 20.8223 106.376 20.8223C105.633 20.8223 104.838 20.6402 103.989 20.276C103.14 19.9118 102.754 19.7297 102.831 19.7297C102.706 19.7297 102.643 19.8735 102.643 20.161C102.643 20.6498 102.667 21.383 102.715 22.3605C102.764 23.3477 102.788 24.0856 102.788 24.5744C102.788 24.8811 102.629 25.0344 102.31 25.0344L99.3586 25.0488C98.693 25.0488 98.2638 25.0248 98.0708 24.9769C97.7815 24.9098 97.6368 24.7325 97.6368 24.445L97.6657 13.3756C97.6657 11.1426 97.4969 9.25931 97.1593 7.72589C97.14 7.63005 97.1303 7.54859 97.1303 7.4815C97.1303 7.33774 97.1882 7.2419 97.304 7.19398C97.6802 7.05022 98.3988 6.89688 99.4599 6.73395C100.492 6.57103 101.24 6.48956 101.703 6.48956C102.079 6.48956 102.291 6.73875 102.339 7.23711C102.395 7.7085 102.46 7.95258 102.534 7.96935C102.474 7.95205 102.887 7.69359 103.772 7.19398C104.698 6.66687 105.537 6.40331 106.289 6.40331C108.382 6.40331 110.056 7.08856 111.31 8.45906C112.525 9.78164 113.133 11.5019 113.133 13.62ZM110.256 15.2725C110.374 14.7677 109.907 14.2243 109.213 14.0586C108.52 13.8929 107.861 14.1684 107.743 14.6733C107.683 14.9295 107.774 15.1952 107.967 15.4168C108.156 15.6326 108.443 15.8062 108.785 15.8878C109.478 16.0529 110.137 15.778 110.256 15.2725ZM110.101 12.4705C110.187 12.2906 110.21 12.0986 110.156 11.9165C110.008 11.4194 109.334 11.1836 108.652 11.3897C107.97 11.5957 107.536 12.1655 107.684 12.6625C107.832 13.1596 108.506 13.3954 109.188 13.1893C109.621 13.059 109.953 12.782 110.101 12.4705ZM107.949 9.9351C107.71 9.54276 107.08 9.49747 106.544 9.83143C106.006 10.1648 105.766 10.7533 106.005 11.1445C106.245 11.5356 106.874 11.5821 107.411 11.247C107.949 10.9135 108.189 10.3263 107.949 9.9351ZM102.575 14.1583L102.575 14.1607C102.594 15.4514 102.61 16.5037 104.155 16.4583C105.872 16.4079 107.212 14.646 107.184 13.6829C107.156 12.7203 105.713 11.04 103.995 11.0904C102.453 11.1357 102.492 12.0252 102.548 13.2786C102.555 13.4211 102.561 13.5683 102.566 13.7195C102.57 13.8679 102.573 14.0146 102.575 14.1583ZM106.158 16.2865C105.942 16.6917 106.217 17.2638 106.774 17.5651C107.329 17.867 107.955 17.7855 108.171 17.3798C108.387 16.9747 108.112 16.4025 107.556 16.1012C107 15.7987 106.374 15.8814 106.158 16.2865Z" fill="url(#paint6_linear_338_1092)"/>
<path fill-rule="evenodd" clip-rule="evenodd" d="M94.2987 19.5413C95.5141 18.1899 96.1218 16.4888 96.1218 14.4378C96.1218 12.3198 95.5141 10.5995 94.2987 9.27688C93.0447 7.90638 91.3711 7.22114 89.2779 7.22114C88.5255 7.22114 87.6863 7.48469 86.7603 8.01181C85.8757 8.51141 85.463 8.76987 85.5222 8.78718C85.4485 8.7704 85.3837 8.52632 85.3279 8.05494C85.2796 7.55657 85.0674 7.30739 84.6912 7.30739C84.2282 7.30739 83.4807 7.38885 82.4485 7.55178C81.3875 7.71471 80.6688 7.86805 80.2926 8.01181C80.1769 8.05973 80.119 8.15557 80.119 8.29932C80.119 8.36641 80.1286 8.44788 80.1479 8.54372C80.4855 10.0771 80.6544 11.9604 80.6544 14.1934L80.6254 25.2628C80.6254 25.5504 80.7701 25.7277 81.0595 25.7948C81.2524 25.8427 81.6817 25.8666 82.3472 25.8666L85.2989 25.8523C85.6172 25.8523 85.7764 25.6989 85.7764 25.3922C85.7764 24.9035 85.7523 24.1655 85.7041 23.1783C85.6558 22.2008 85.6317 21.4676 85.6317 20.9788C85.6317 20.6913 85.6944 20.5476 85.8198 20.5476C85.7426 20.5476 86.1285 20.7297 86.9773 21.0938C87.8262 21.458 88.622 21.6401 89.3647 21.6401C91.4001 21.6401 93.0447 20.9405 94.2987 19.5413ZM92.202 14.8765C92.8961 15.0422 93.3623 15.5855 93.2442 16.0904C93.1255 16.5958 92.4666 16.8708 91.7736 16.7056C91.4317 16.6241 91.1446 16.4505 90.956 16.2346C90.7622 16.0131 90.6719 15.7473 90.732 15.4911C90.8501 14.9863 91.5085 14.7107 92.202 14.8765ZM93.145 12.7343C93.1989 12.9164 93.1753 13.1084 93.0898 13.2883C92.9417 13.5998 92.6094 13.8768 92.1767 14.0072C91.4943 14.2133 90.8207 13.9774 90.6728 13.4804C90.5244 12.9833 90.9586 12.4136 91.6405 12.2075C92.3224 12.0014 92.9966 12.2373 93.145 12.7343ZM89.5324 10.6493C90.0689 10.3153 90.6985 10.3606 90.938 10.7529C91.1775 11.1441 90.9372 11.7314 90.3995 12.0648C89.8624 12.3999 89.2334 12.3535 88.9939 11.9623C88.7545 11.5711 88.9947 10.9827 89.5324 10.6493ZM85.5634 14.9785L85.5634 14.9761C85.5612 14.8324 85.559 14.6858 85.5546 14.5374C85.5501 14.3861 85.5435 14.2389 85.5371 14.0964C85.481 12.843 85.4412 11.9535 86.9841 11.9082C88.7015 11.8578 90.1444 13.5382 90.1724 14.5007C90.2011 15.4638 88.861 17.2258 87.1436 17.2762C85.599 17.3215 85.583 16.2692 85.5634 14.9785ZM89.7622 18.3829C89.2057 18.0816 88.9309 17.5095 89.1467 17.1044C89.3625 16.6992 89.9883 16.6165 90.5443 16.919C91.1003 17.2204 91.3756 17.7925 91.1593 18.1976C90.9435 18.6033 90.3177 18.6849 89.7622 18.3829Z" fill="url(#paint7_linear_338_1092)"/>
<path fill-rule="evenodd" clip-rule="evenodd" d="M78.5742 22.0395C78.7606 21.9724 78.8538 21.8526 78.8538 21.6801C78.8538 21.4213 77.9666 18.3257 76.1924 12.3933C74.4255 6.49916 73.3595 3.04895 72.9942 2.04264C72.8749 1.72637 71.7902 1.61137 71.6486 1.61137C72.409 1.56824 71.1603 1.63054 70.7652 1.66887C70.3775 1.69762 70.083 1.712 69.8818 1.712C69.673 1.712 69.3562 1.68804 68.9313 1.64012C68.5138 1.5922 67.4775 1.49635 67.2762 1.49635C67.157 1.49635 67.0526 1.67844 66.9631 2.04263C66.8066 2.67517 65.8151 6.1685 63.9886 12.5226C62.3038 18.3976 61.4614 21.4596 61.4614 21.7088C61.4614 21.9867 62.7586 22.1976 63.8992 22.1976C65.3454 22.1976 66.1953 22.1593 66.4488 22.0826C66.65 22.0155 66.8215 21.5842 66.9632 20.7888C67.1197 19.9166 67.2614 19.4039 67.3881 19.2506C67.4701 19.1643 68.1448 19.1212 69.4121 19.1212C71.2907 19.1212 72.2897 19.1547 72.409 19.2218C72.5506 19.3176 72.7482 20.0556 73.0017 21.4357C73.0687 21.7999 73.229 22.0155 73.4825 22.0826C73.7881 22.1593 74.474 22.1976 75.5401 22.1976C76.703 22.1976 78.3506 22.1161 78.5742 22.0395ZM69.1773 11.3726C69.55 9.96375 69.8147 9.04848 69.9712 8.62679C70.1278 9.01015 70.3738 9.89187 70.7093 11.2719C71.0522 12.7 71.2237 13.5721 71.2237 13.8884C71.2237 13.9746 71.2162 14.0417 71.2013 14.0896C71.1491 14.243 70.877 14.3196 70.385 14.3196C69.8557 14.3196 69.4755 14.31 69.2444 14.2909C68.7971 14.2717 68.5734 14.1759 68.5734 14.0034C68.5734 13.7446 68.7747 12.8677 69.1773 11.3726Z" fill="url(#paint8_linear_338_1092)"/>
<defs>
<linearGradient id="paint0_linear_338_1092" x1="0.549805" y1="12.9459" x2="113.044" y2="12.9459" gradientUnits="userSpaceOnUse">
<stop stop-color="#0803FB"/>
<stop offset="1" stop-color="#C148B8"/>
</linearGradient>
<linearGradient id="paint1_linear_338_1092" x1="0.549805" y1="12.9459" x2="113.044" y2="12.9459" gradientUnits="userSpaceOnUse">
<stop stop-color="#0803FB"/>
<stop offset="1" stop-color="#C148B8"/>
</linearGradient>
<linearGradient id="paint2_linear_338_1092" x1="0.549805" y1="12.9459" x2="113.044" y2="12.9459" gradientUnits="userSpaceOnUse">
<stop stop-color="#0803FB"/>
<stop offset="1" stop-color="#C148B8"/>
</linearGradient>
<linearGradient id="paint3_linear_338_1092" x1="0.549805" y1="12.9459" x2="113.044" y2="12.9459" gradientUnits="userSpaceOnUse">
<stop stop-color="#0803FB"/>
<stop offset="1" stop-color="#C148B8"/>
</linearGradient>
<linearGradient id="paint4_linear_338_1092" x1="0.549805" y1="12.9459" x2="113.044" y2="12.9459" gradientUnits="userSpaceOnUse">
<stop stop-color="#0803FB"/>
<stop offset="1" stop-color="#C148B8"/>
</linearGradient>
<linearGradient id="paint5_linear_338_1092" x1="0.549805" y1="12.9459" x2="113.044" y2="12.9459" gradientUnits="userSpaceOnUse">
<stop stop-color="#0803FB"/>
<stop offset="1" stop-color="#C148B8"/>
</linearGradient>
<linearGradient id="paint6_linear_338_1092" x1="0.549805" y1="12.9459" x2="113.044" y2="12.9459" gradientUnits="userSpaceOnUse">
<stop stop-color="#0803FB"/>
<stop offset="1" stop-color="#C148B8"/>
</linearGradient>
<linearGradient id="paint7_linear_338_1092" x1="0.549805" y1="12.9459" x2="113.044" y2="12.9459" gradientUnits="userSpaceOnUse">
<stop stop-color="#0803FB"/>
<stop offset="1" stop-color="#C148B8"/>
</linearGradient>
<linearGradient id="paint8_linear_338_1092" x1="0.549805" y1="12.9459" x2="113.044" y2="12.9459" gradientUnits="userSpaceOnUse">
<stop stop-color="#0803FB"/>
<stop offset="1" stop-color="#C148B8"/>
</linearGradient>
</defs>
</svg>
