<svg width="24" height="24" viewBox="0 0 24 24" fill="none" xmlns="http://www.w3.org/2000/svg">
<g id="X (Twitter)">
<path id="Union" fill-rule="evenodd" clip-rule="evenodd" d="M3.68492 3.00001C3.42794 3.00001 3.19197 3.14403 3.07543 3.37295C2.95792 3.602 2.97894 3.87725 3.12988 4.08564L9.76265 13.2702L3.20057 19.831C3.08116 19.9503 3.01524 20.1027 3.00282 20.2586C2.98658 20.4522 3.0525 20.6513 3.20057 20.7994C3.46806 21.0669 3.90178 21.0669 4.16926 20.7995L10.5756 14.3948L15.1401 20.7161C15.2691 20.8944 15.4754 21 15.6952 21H20.3151C20.5721 21 20.808 20.856 20.9246 20.627C21.0421 20.398 21.0211 20.1227 20.8701 19.9144L14.2383 10.7317L20.7994 4.16887C20.9418 4.027 21.0086 3.83832 20.9991 3.65251C20.9914 3.48807 20.9246 3.32602 20.7994 3.20052C20.5319 2.93314 20.0982 2.93314 19.8307 3.20064L13.4263 9.60676L8.85796 3.28375C8.72899 3.10558 8.52265 3.00001 8.30292 3.00001H3.68492ZM12.7853 11.0589L12.7719 11.0402L7.95328 4.36949H5.02427L16.0458 19.6305H18.9757L12.7853 11.0589Z" fill="#0803FB"/>
</g>
</svg>
