<svg width="49" height="48" viewBox="0 0 49 48" fill="none" xmlns="http://www.w3.org/2000/svg">
<g id="X (Twitter)">
<path id="Union" fill-rule="evenodd" clip-rule="evenodd" d="M5.16019 4.00003C4.57485 4.00003 4.03737 4.32807 3.7719 4.84951C3.50425 5.37121 3.55213 5.99819 3.89593 6.47284L19.0039 27.3933L4.05696 42.3373C3.78496 42.609 3.63481 42.9561 3.60653 43.3114C3.56953 43.7523 3.71968 44.2057 4.05696 44.543C4.66624 45.1523 5.65414 45.1523 6.26342 44.5433L20.8557 29.9548L31.2526 44.3534C31.5464 44.7595 32.0164 45 32.5169 45H43.04C43.6254 45 44.1628 44.6719 44.4283 44.1505C44.6959 43.6288 44.6481 43.0018 44.3043 42.5272L29.1985 21.611L44.1432 6.66242C44.4675 6.33928 44.6198 5.90951 44.598 5.48627C44.5806 5.11172 44.4283 4.74261 44.1432 4.45673C43.534 3.84771 42.5461 3.84771 41.9368 4.457L27.3489 19.0487L16.9432 4.64632C16.6495 4.24049 16.1795 4.00003 15.679 4.00003H5.16019ZM25.8888 22.3563L25.8583 22.3139L14.8826 7.11939H8.21094L33.3155 41.8806H39.9893L25.8888 22.3563Z" fill="#847468"/>
</g>
</svg>
