<svg width="48" height="48" viewBox="0 0 48 48" fill="none" xmlns="http://www.w3.org/2000/svg">
<g id="Youtube">
<g id="Union">
<path fill-rule="evenodd" clip-rule="evenodd" d="M20.1708 16.1584C19.7058 15.9259 19.1536 15.9507 18.7114 16.2241C18.2692 16.4974 18 16.9802 18 17.5V29.5C18 30.0199 18.2692 30.5027 18.7114 30.776C19.1536 31.0493 19.7058 31.0742 20.1708 30.8417L32.1708 24.8417C32.679 24.5876 33 24.0682 33 23.5C33 22.9319 32.679 22.4125 32.1708 22.1584L20.1708 16.1584ZM28.1459 23.5L21 27.073V19.9271L28.1459 23.5Z" fill="#FF858C"/>
<path fill-rule="evenodd" clip-rule="evenodd" d="M39.8969 6.61377C40.7472 6.71288 41.5691 6.8388 42.1085 7.03466C43.2762 7.37386 44.3339 8.01894 45.1819 8.90136C46.0459 9.80049 46.6624 10.9147 46.9757 12.1295L46.9824 12.1565C47.6925 15.1368 48.0072 19.3381 47.9999 23.4645C47.9925 27.5973 47.6615 31.8007 47.0185 34.8C47.0142 34.8202 47.0094 34.8402 47.0043 34.8602C46.691 36.075 46.0745 37.1892 45.2105 38.0884C44.3461 38.9879 43.2637 39.6408 42.069 39.9744C42.0592 39.9772 42.0493 39.9799 42.0393 39.9824C40.5353 40.3694 37.89 40.6203 34.8255 40.7785C31.7131 40.9392 28.0297 41.0096 24.3652 40.999C20.7002 40.9883 17.0384 40.8965 13.9681 40.7307C10.9435 40.5673 8.36878 40.3267 6.9567 39.9885C6.93859 39.9841 6.92057 39.9795 6.90264 39.9744C5.708 39.6408 4.62562 38.9879 3.76121 38.0884C2.89718 37.1892 2.28073 36.075 1.9674 34.8602C1.9648 34.8501 1.9623 34.84 1.95991 34.8299C1.28679 31.9756 0.992785 27.6599 1.00013 23.4629C1.00749 19.2611 1.31747 14.9902 1.92603 12.2129C1.92993 12.195 1.93416 12.1773 1.93871 12.1596C2.25183 10.9445 2.86819 9.83001 3.73223 8.93061C4.59665 8.03081 5.67914 7.37769 6.87395 7.04391C6.90218 7.03602 6.93064 7.02896 6.95928 7.02274C10.728 6.2045 18.8521 5.94923 26.1976 6.00807C29.9054 6.03777 33.4767 6.14841 36.2902 6.31697C37.6953 6.40114 38.9261 6.50062 39.8969 6.61377ZM5.89565 11.009C6.38554 10.499 6.98773 10.1349 7.64119 9.94467C11.0506 9.21695 18.7973 8.94889 26.1736 9.00798C29.8432 9.03737 33.3612 9.14687 36.1108 9.3116C37.4873 9.39406 38.6566 9.48951 39.5495 9.59359C39.9967 9.64571 40.3599 9.69833 40.6378 9.74964C40.7762 9.77522 40.8842 9.79878 40.9649 9.81932C41.0382 9.83795 41.0719 9.8498 41.0771 9.85163C41.0777 9.85189 41.078 9.85193 41.0771 9.85163C41.1281 9.87214 41.1805 9.8899 41.2334 9.90468C41.9022 10.0915 42.5189 10.4599 43.0187 10.98C43.5161 11.4976 43.8797 12.1469 44.0675 12.8662C44.6959 15.513 45.0071 19.4378 44.9999 23.4591C44.9927 27.4656 44.67 31.4239 44.092 34.1392C43.903 34.8522 43.5411 35.4959 43.0473 36.0097C42.5511 36.5261 41.9396 36.893 41.2764 37.081C40.0996 37.3807 37.7493 37.6236 34.6708 37.7825C31.6269 37.9396 28.0001 38.0095 24.3739 37.999C20.7481 37.9885 17.1385 37.8976 14.1299 37.735C11.1012 37.5714 8.80272 37.3404 7.68355 37.0776C7.02485 36.8886 6.41767 36.5231 5.92434 36.0097C5.42742 35.4926 5.06395 34.8438 4.87606 34.1253C4.2867 31.6144 3.99292 27.5857 4.00013 23.4681C4.00732 19.3622 4.31323 15.3542 4.85036 12.8831C5.03894 12.1687 5.4012 11.5237 5.89565 11.009Z" fill="#FF858C"/>
</g>
</g>
</svg>
