<svg width="24" height="24" viewBox="0 0 24 24" fill="none" xmlns="http://www.w3.org/2000/svg">
<g id="Youtube">
<g id="Union">
<path fill-rule="evenodd" clip-rule="evenodd" d="M9.97358 8.64383C9.75592 8.53755 9.49744 8.54891 9.29044 8.67385C9.08345 8.79879 8.95745 9.0195 8.95745 9.25715V14.7429C8.95745 14.9805 9.08345 15.2012 9.29044 15.3262C9.49744 15.4511 9.75592 15.4625 9.97358 15.3562L15.5906 12.6133C15.8285 12.4972 15.9787 12.2597 15.9787 12C15.9787 11.7403 15.8285 11.5028 15.5906 11.3867L9.97358 8.64383ZM13.7066 12L10.3617 13.6334V10.3667L13.7066 12Z" fill="#0803FB"/>
<path fill-rule="evenodd" clip-rule="evenodd" d="M19.207 4.28058C19.6051 4.32589 19.9898 4.38345 20.2423 4.47299C20.7889 4.62805 21.284 4.92294 21.6809 5.32633C22.0853 5.73737 22.3739 6.2467 22.5205 6.80207L22.5237 6.81438C22.8561 8.17681 23.0034 10.0974 22.9999 11.9838C22.9965 13.873 22.8416 15.7946 22.5406 17.1657C22.5385 17.1749 22.5363 17.1841 22.5339 17.1932C22.3873 17.7486 22.0987 18.2579 21.6943 18.6689C21.2896 19.0802 20.783 19.3786 20.2238 19.5312C20.2192 19.5324 20.2146 19.5336 20.2099 19.5348C19.5059 19.7117 18.2677 19.8264 16.8332 19.8987C15.3763 19.9722 13.6522 20.0044 11.9369 19.9995C10.2214 19.9947 8.50732 19.9527 7.07019 19.8769C5.6544 19.8022 4.44922 19.6922 3.78824 19.5376C3.77977 19.5356 3.77133 19.5334 3.76294 19.5312C3.20374 19.3786 2.6971 19.0802 2.29248 18.6689C1.88804 18.2579 1.59949 17.7486 1.45282 17.1932C1.45161 17.1886 1.45044 17.184 1.44932 17.1793C1.13424 15.8745 0.996623 13.9016 1.00006 11.983C1.00351 10.0622 1.1486 8.10981 1.43346 6.84016C1.43529 6.83201 1.43727 6.8239 1.4394 6.81582C1.58596 6.26033 1.87447 5.75086 2.27892 5.33971C2.68354 4.92837 3.19024 4.6298 3.74951 4.47721C3.76272 4.47361 3.77604 4.47038 3.78945 4.46754C5.55351 4.09348 9.3563 3.97679 12.7946 4.00369C14.5302 4.01727 16.2019 4.06785 17.5188 4.1449C18.1765 4.18338 18.7527 4.22886 19.207 4.28058ZM3.29158 6.28982C3.52089 6.0567 3.80277 5.89023 4.10864 5.80327C5.70456 5.4706 9.33064 5.34806 12.7834 5.37507C14.5011 5.38851 16.1478 5.43857 17.4349 5.51387C18.0792 5.55157 18.6265 5.5952 19.0445 5.64278C19.2538 5.66661 19.4238 5.69066 19.5538 5.71412C19.6187 5.72581 19.6692 5.73658 19.707 5.74597C19.7413 5.75449 19.7571 5.75991 19.7595 5.76074C19.7598 5.76086 19.7599 5.76088 19.7595 5.76074C19.7834 5.77012 19.8079 5.77824 19.8327 5.785C20.1457 5.87038 20.4344 6.0388 20.6684 6.27658C20.9011 6.51317 21.0714 6.81002 21.1592 7.13881C21.4534 8.34877 21.5991 10.143 21.5957 11.9813C21.5923 13.8128 21.4413 15.6224 21.1707 16.8636C21.0823 17.1896 20.9128 17.4838 20.6817 17.7187C20.4494 17.9548 20.1632 18.1225 19.8528 18.2084C19.3019 18.3454 18.2018 18.4565 16.7608 18.5291C15.336 18.601 13.6383 18.6329 11.941 18.6281C10.2438 18.6233 8.55421 18.5817 7.14593 18.5074C5.72822 18.4326 4.65234 18.327 4.12847 18.2069C3.82014 18.1205 3.53593 17.9534 3.30501 17.7187C3.07241 17.4823 2.90228 17.1857 2.81433 16.8573C2.53846 15.7094 2.40094 13.8678 2.40432 11.9854C2.40768 10.1084 2.55088 8.27621 2.8023 7.14656C2.89057 6.81997 3.06014 6.5251 3.29158 6.28982Z" fill="#0803FB"/>
</g>
</g>
</svg>
