<svg width="55" height="46" viewBox="0 0 55 46" fill="none" xmlns="http://www.w3.org/2000/svg">
<path d="M33.7692 9.84341C34.9248 9.84341 35.8639 8.92362 35.8639 7.78874C35.8639 6.65495 34.9248 5.73625 33.7692 5.73625C32.6129 5.73625 31.6738 6.6544 31.6738 7.78874C31.6738 8.92362 32.6124 9.84341 33.7692 9.84341Z" fill="#322E2B"/>
<path d="M48.9179 7.78868C48.9179 8.92357 47.98 9.84335 46.8232 9.84335C45.6664 9.84335 44.7295 8.92357 44.7295 7.78868C44.7295 6.65434 45.6664 5.73619 46.8232 5.73619C47.9794 5.73619 48.9179 6.65489 48.9179 7.78868Z" fill="#322E2B"/>
<path d="M40.2963 9.84335C41.4526 9.84335 42.3911 8.92357 42.3911 7.78868C42.3911 6.65489 41.4526 5.73619 40.2963 5.73619C39.1379 5.73619 38.2005 6.65434 38.2005 7.78868C38.2005 8.92357 39.1384 9.84335 40.2963 9.84335Z" fill="#322E2B"/>
<path fill-rule="evenodd" clip-rule="evenodd" d="M0.827839 6.96356C0.827839 3.53148 3.65669 0.800781 7.08453 0.800781H48.7301C52.1584 0.800781 54.9856 3.53194 54.9856 6.96356C54.9856 6.97746 54.9855 6.99131 54.9851 7.00512V12.9857L54.9849 13.0103V38.883C54.9849 42.3129 52.1572 45.0436 48.7293 45.0436H7.08376C3.65657 45.0436 0.827068 42.3135 0.827637 38.883V12.9853L0.827839 12.9607V6.96356ZM51.9849 14.4857H3.82764V38.883C3.82726 40.5992 5.25565 42.0436 7.08376 42.0436H48.7293C50.5569 42.0436 51.9849 40.6 51.9849 38.883V14.4857ZM51.9851 6.96356V11.4853H3.82784V6.96356C3.82784 5.24437 5.25695 3.80078 7.08453 3.80078H48.7301C50.5451 3.80078 51.9668 5.22492 51.9855 6.92954C51.9852 6.94085 51.9851 6.95219 51.9851 6.96356Z" fill="#322E2B"/>
</svg>